<svg width="29" height="29" viewBox="0 0 29 29" fill="none" xmlns="http://www.w3.org/2000/svg">
<path d="M16.8916 6.57889L7.28398 5.46873C6.80646 5.41351 6.32657 5.55025 5.94986 5.84886C5.57316 6.14747 5.3305 6.58349 5.27528 7.06101L4.92955 10.0544" stroke="white" stroke-width="1.14685" stroke-miterlimit="2" stroke-linecap="round" stroke-linejoin="round"/>
<path d="M6.79733 9.24555L6.94324 7.98496C6.95595 7.87457 6.99029 7.76777 7.04429 7.67065C7.0983 7.57354 7.1709 7.48801 7.25796 7.41896C7.34502 7.34991 7.44483 7.29869 7.55169 7.26822C7.65855 7.23775 7.77037 7.22863 7.88075 7.24138L9.22925 7.39726M24.1072 8.66238C24.0272 8.1884 23.7623 7.76557 23.3706 7.48686C22.979 7.20816 22.4927 7.09639 22.0187 7.17613L4.73244 10.0875C4.25846 10.1674 3.83563 10.4323 3.55692 10.824C3.27822 11.2156 3.16645 11.7019 3.24619 12.1759L4.89285 21.9521C4.93238 22.1868 5.01777 22.4114 5.14412 22.6132C5.27047 22.8149 5.43532 22.9897 5.62925 23.1278C5.82318 23.2658 6.0424 23.3642 6.27439 23.4175C6.50637 23.4708 6.74658 23.4779 6.9813 23.4383L24.2676 20.527C24.7414 20.4468 25.1641 20.1818 25.4428 19.7903C25.7214 19.3987 25.8333 18.9125 25.7538 18.4386L24.1072 8.66238Z" stroke="white" stroke-width="1.14685" stroke-miterlimit="2" stroke-linecap="round" stroke-linejoin="round"/>
<path d="M8.82416 21.4115L7.54499 21.6272C7.4276 21.647 7.30746 21.6436 7.19141 21.617C7.07537 21.5904 6.96571 21.5412 6.86871 21.4721C6.7717 21.4031 6.68926 21.3157 6.62608 21.2147C6.56291 21.1138 6.52024 21.0015 6.50053 20.8841L6.2998 19.6914M20.1758 9.20249L21.455 8.98726C21.5724 8.96733 21.6926 8.97075 21.8086 8.99733C21.9247 9.02391 22.0344 9.07312 22.1314 9.14215C22.2284 9.21118 22.3109 9.29867 22.374 9.3996C22.4372 9.50054 22.4798 9.61295 22.4995 9.73038L22.7002 10.9226M5.31606 13.8506L5.11533 12.658C5.09553 12.5407 5.09905 12.4206 5.12568 12.3046C5.15231 12.1886 5.20155 12.079 5.27056 11.982C5.33957 11.8851 5.42701 11.8027 5.52789 11.7395C5.62876 11.6764 5.74109 11.6337 5.85846 11.614L7.13763 11.3983M23.6839 16.7638L23.8847 17.956C23.9045 18.0733 23.9011 18.1935 23.8745 18.3095C23.8479 18.4256 23.7986 18.5352 23.7296 18.6322C23.6606 18.7292 23.5731 18.8117 23.4722 18.8749C23.3713 18.938 23.259 18.9807 23.1415 19.0004L21.8624 19.2157M15.0533 13.4977C14.9226 13.3734 14.7624 13.2847 14.5878 13.2398C14.4133 13.1949 14.2301 13.1954 14.0558 13.2412C13.8814 13.287 13.7217 13.3766 13.5917 13.5015C13.4617 13.6264 13.3658 13.7824 13.3131 13.9548C13.2604 14.1272 13.2526 14.3102 13.2905 14.4864C13.3284 14.6626 13.4107 14.8263 13.5296 14.9617C13.6486 15.0972 13.8001 15.2 13.97 15.2605C14.1398 15.3209 14.3222 15.3369 14.5 15.307C14.7766 15.2606 15.0604 15.3258 15.2889 15.4884C15.5175 15.651 15.6721 15.8977 15.7189 16.1743C15.7553 16.3931 15.722 16.6178 15.6238 16.8166C15.5256 17.0155 15.3674 17.1785 15.1716 17.2826C14.9757 17.3867 14.7522 17.4267 14.5324 17.3968C14.3126 17.367 14.1077 17.2689 13.9467 17.1163M14.1488 13.2208L14.0079 12.3866M14.9921 18.2274L14.8512 17.3932" stroke="white" stroke-width="1.14685" stroke-miterlimit="2" stroke-linecap="round" stroke-linejoin="round"/>
</svg>
