<svg xmlns="http://www.w3.org/2000/svg" viewBox="0 0 64 64"><path fill="#edbf4f" d="M49,19a17,17,0,1,0-26.55,14A5.94,5.94,0,0,1,25,38H39a5.94,5.94,0,0,1,2.53-4.94A16.94,16.94,0,0,0,49,19Z"/><polygon fill="#6773ba" points="39 48 39 55 35.5 53 31.99 55 28.5 53 25 55 25 48 39 48"/><path fill="#9ca8db" d="M39,55l-4.13,4.21a4,4,0,0,0-5.66-.08L25,55l3.5-2L32,55l3.51-2Z"/><path fill="#6773ba" d="M42,45.5A2.49,2.49,0,0,1,39.5,48h-15a2.5,2.5,0,1,1,0-5h15A2.5,2.5,0,0,1,42,45.5Z"/><rect width="20" height="5" x="22" y="38" fill="#6773ba" rx="2.5" ry="2.5"/><path fill="#edbf4f" d="M34.87,59.21,32.13,62l-2.92-2.87a4,4,0,0,1,5.66.08Z"/><path fill="#383e6d" d="M32.13,63a1,1,0,0,1-.7-.29l-7.13-7A1,1,0,0,1,24,55V48a1,1,0,0,1,1-1H39a1,1,0,0,1,1,1v1a1,1,0,0,1-2,0H26v5.58l6.12,6,5.88-6V53a1,1,0,0,1,2,0v2a1,1,0,0,1-.29.7l-6.87,7a1,1,0,0,1-.7.3Z"/><path fill="#383e6d" d="M25 56a1 1 0 0 1-.5-1.87l3.5-2a1 1 0 0 1 1 0l3 1.72 3-1.72a1 1 0 0 1 1 0l3.51 2a1 1 0 0 1-1 1.74l-3-1.72-3 1.72a1 1 0 0 1-1 0l-3-1.72-3 1.72A1 1 0 0 1 25 56zM32.13 63a1 1 0 0 1-.7-.29l-2.92-2.87a1 1 0 0 1-.3-.71 1 1 0 0 1 .3-.72 5 5 0 0 1 7.08.1 1 1 0 0 1 0 1.4L32.84 62.7a1 1 0 0 1-.7.3zm-1.36-3.74l1.35 1.33 1.24-1.27A3.09 3.09 0 0 0 30.77 59.26zM39 39H25a1 1 0 0 1-1-1 4.93 4.93 0 0 0-2.11-4.12A17.84 17.84 0 0 1 14 17.9 1 1 0 1 1 16 18a15.83 15.83 0 0 0 7 14.2A6.86 6.86 0 0 1 25.93 37H38.07a7 7 0 0 1 .7-2.24A6.75 6.75 0 0 1 41 32.23 16 16 0 0 0 30.17 3.1 16.12 16.12 0 0 0 17 13.42a1 1 0 1 1-1.88-.7A18.12 18.12 0 0 1 30 1.12 17.85 17.85 0 0 1 44 5.58a18 18 0 0 1-1.91 28.31 4.73 4.73 0 0 0-1.54 1.77A5.23 5.23 0 0 0 40 38 1 1 0 0 1 39 39z"/><path fill="#edbf4f" d="M10 21H5a1 1 0 0 1 0-2h5a1 1 0 0 1 0 2zM59 21H54a1 1 0 0 1 0-2h5a1 1 0 0 1 0 2zM8.62 34.5a1 1 0 0 1-.5-1.87l4.33-2.5a1 1 0 0 1 1 1.74l-4.33 2.5A1 1 0 0 1 8.62 34.5zM51.05 10a1 1 0 0 1-.5-1.87l4.33-2.5a1 1 0 0 1 1 1.74l-4.33 2.5A1 1 0 0 1 51.05 10zM13 10a1 1 0 0 1-.5-.13L8.12 7.37a1 1 0 0 1 1-1.74l4.33 2.5A1 1 0 0 1 13 10zM55.38 34.5a1 1 0 0 1-.5-.13l-4.33-2.5a1 1 0 0 1 1-1.74l4.33 2.5a1 1 0 0 1-.5 1.87z"/><path fill="#6773ba" d="M34,39a1,1,0,0,1-1-1v-.51a21.64,21.64,0,0,1,1.18-7,1,1,0,1,1,1.9.66A19.23,19.23,0,0,0,35,37.49V38A1,1,0,0,1,34,39Z"/><path fill="#6773ba" d="M30,39a1,1,0,0,1-1-1v-.51a19.36,19.36,0,0,0-5.71-13.78,1,1,0,0,1,0-1.42l4-4A1,1,0,0,1,28,18h0a1,1,0,0,1,.71.29L32,21.59l3.3-3.3a1,1,0,0,1,1.42,0l4,4a1,1,0,0,1,0,1.42,19,19,0,0,0-3.05,4,1,1,0,1,1-1.74-1A21,21,0,0,1,38.6,23L36,20.41l-3.3,3.3A1,1,0,0,1,32,24h0a1,1,0,0,1-.71-.29L28,20.42,25.4,23A21.31,21.31,0,0,1,31,37.49V38A1,1,0,0,1,30,39Z"/><path fill="#d9e2ff" d="M45 20a1 1 0 0 1-1-1 12.23 12.23 0 0 0-.07-1.33 1 1 0 1 1 2-.22A14 14 0 0 1 46 19 1 1 0 0 1 45 20zM43.53 14a1 1 0 0 1-.89-.54A12 12 0 0 0 32 7a1 1 0 0 1 0-2 14 14 0 0 1 12.42 7.54A1 1 0 0 1 44 13.89 1.07 1.07 0 0 1 43.53 14z"/><path fill="#383e6d" d="M39.5,49h-15a3.5,3.5,0,1,1,0-7H25a1,1,0,0,1,0,2h-.5a1.5,1.5,0,0,0,0,3h15a1.5,1.5,0,0,0,0-3H29a1,1,0,0,1,0-2H39.5a3.5,3.5,0,1,1,0,7Z"/><path fill="#383e6d" d="M39.5,44H29a1,1,0,0,1,0-2H39.5a1.5,1.5,0,0,0,0-3h-15a1.5,1.5,0,0,0,0,3H25a1,1,0,0,1,0,2h-.5a3.5,3.5,0,1,1,0-7h15a3.5,3.5,0,1,1,0,7Z"/></svg>