<svg xmlns="http://www.w3.org/2000/svg" data-name="Layer 1" viewBox="0 0 512 512"><path fill="#ffcd85" d="M263.52491,173.18792H424.85071a61.99994,61.99994,0,0,1,61.99994,61.99994v37.46046a0,0,0,0,1,0,0H201.525a0,0,0,0,1,0,0V235.18786A61.99994,61.99994,0,0,1,263.52491,173.18792Z"/><path fill="#ffc570" d="M424.85071,173.18794h-45a61.99994,61.99994,0,0,1,61.99994,62v37.46045h45V235.18794A61.99994,61.99994,0,0,0,424.85071,173.18794Z"/><path fill="#ffcd85" d="M486.85,340.34126v37.46a62.00194,62.00194,0,0,1-62,62H263.52a62.002,62.002,0,0,1-62-62v-37.46Z"/><path fill="#ffc570" d="M441.85065,340.34346v37.46045a61.99988,61.99988,0,0,1-61.99994,61.99976h45a61.99988,61.99988,0,0,0,61.99994-61.99976V340.34346Z"/><path fill="#ffc570" d="M486.85,340.34126v27.68018a29.16216,29.16216,0,0,1-11.42,2.31982H204.53a29.85477,29.85477,0,0,1-3.01-.1499v-29.8501Z"/><path fill="#ff7a7a" d="M504.5,322.3813v3.89014a29.06331,29.06331,0,0,1-29.07,29.06982H204.53a29.06327,29.06327,0,0,1-29.07-29.06982V322.3813a29.0496,29.0496,0,0,1,29.07-29.06982h270.9A29.076,29.076,0,0,1,504.5,322.3813Z"/><path fill="#f66" d="M504.5,322.3813v3.89014a29.06331,29.06331,0,0,1-29.07,29.06982h-45a29.06331,29.06331,0,0,0,29.07-29.06982V322.3813a29.83892,29.83892,0,0,0-.31-4.25,29.06326,29.06326,0,0,0-28.76-24.81982h45A29.076,29.076,0,0,1,504.5,322.3813Z"/><path fill="#ffc570" d="M321.021,355.34346l-39.94031,56.433a3,3,0,0,1-4.99328,0l-36.51421-56.433Z"/><path fill="#fff8cc" d="M308.6853,355.34342l-27.60461,41.433a3,3,0,0,1-4.99328,0l-27.60461-41.433Z"/><path fill="#f66" d="M500.72,308.05123a25.84086,25.84086,0,0,1-37.74,12.2102c-1.21-.75-2.46-1.47-3.79-2.13013a43.0163,43.0163,0,0,0-20-4.37988c-31.67,0-31.67,24.31006-63.34,24.31006-31.66,0-31.66-24.31006-63.31995-24.31006s-31.66,24.31006-63.32,24.31006c-25.73,0-30.55-16.05-48.44-22.07007a21.73919,21.73919,0,0,1-14.5-16.24,28.95351,28.95351,0,0,1,18.26-6.43994h270.9A29.036,29.036,0,0,1,500.72,308.05123Z"/><path fill="#63ea86" d="M185.859,280.63566a21.59147,21.59147,0,0,0,14.91249,20.35576c17.8867,6.01979,22.71008,22.07256,48.43478,22.07256,31.66263,0,31.66263-24.31662,63.32526-24.31662,31.66163,0,31.66163,24.31662,63.32327,24.31662,31.666,0,31.666-24.31662,63.332-24.31662,10.75536,0,17.85766,2.80522,23.78843,6.51007,17.23348,10.76549,39.54354-1.43475,39.54354-21.79283v-.00007a25.78244,25.78244,0,0,0-25.74853-25.81621H207.17338a21.34472,21.34472,0,0,0-21.31653,21.40208Z"/><path fill="#3ce568" d="M476.77026,257.64839h-45a25.78231,25.78231,0,0,1,25.74854,25.81617h0a25.386,25.386,0,0,1-6.12384,16.72973,40.80227,40.80227,0,0,1,11.58026,5.063c17.23352,10.76563,39.54358-1.43457,39.54358-21.79272h0A25.78231,25.78231,0,0,0,476.77026,257.64839Z"/><polygon fill="#ffe966" points="78.258 236.813 43.047 245.17 7.5 94.61 44.251 102.184 78.258 236.813"/><polygon fill="#ffed80" points="110.91 230.739 61.24 248.726 74.867 94.61 110.91 113.82 110.91 230.739"/><polygon fill="#ffe966" points="167.068 236.495 202.765 242.425 227.991 89.786 191.84 99.855 167.068 236.495"/><polygon fill="#ffed80" points="131.324 230.39 180.994 248.726 167.367 94.61 131.324 113.82 131.324 230.39"/><polygon fill="#ffe966" points="103.027 260.015 139.192 258.847 134.224 72.196 100.728 89.144 103.027 260.015"/><path fill="#f66" d="M179.67284,439.80382H60.24774a21.30309,21.30309,0,0,1-21.07868-18.378L12.36,229.68554a15.99135,15.99135,0,0,1,15.809-18.2276H72.0695l0,0a67.60229,67.60229,0,0,0,95.7815,0l0,0h43.90045a15.99135,15.99135,0,0,1,15.809,18.2276l-26.809,191.74027A21.30309,21.30309,0,0,1,179.67284,439.80382Z"/><path fill="#ff4e4e" d="M211.75153,211.458H174.49335a15.99132,15.99132,0,0,1,15.809,18.22754l-26.809,191.74024a21.30286,21.30286,0,0,1-21.07868,18.37793h37.25818a21.30286,21.30286,0,0,0,21.07868-18.37793l26.809-191.74024A15.99132,15.99132,0,0,0,211.75153,211.458Z"/><ellipse cx="119.96" cy="325.631" fill="#fff" rx="47.108" ry="47.232"/><path fill="#eee" d="M119.96027,278.39937a46.9141,46.9141,0,0,0-15,2.45972,47.26921,47.26921,0,0,1,0,89.54345,47.20811,47.20811,0,1,0,15-92.00317Z"/><path fill="#272a33" d="M119.96033,270.89842a54.73208,54.73208,0,1,0,54.60742,54.73242A54.73215,54.73215,0,0,0,119.96033,270.89842Zm0,94.46387a39.73213,39.73213,0,1,1,39.60742-39.73145A39.71464,39.71464,0,0,1,119.96033,365.36229Zm385.13849-64.366a33.4962,33.4962,0,0,0-4.81037-41.08325,33.52522,33.52522,0,0,0-5.93847-4.72925V235.19139a69.57893,69.57893,0,0,0-69.5-69.5H263.5199a69.37363,69.37363,0,0,0-42.91437,14.77881L235.39,91.00877a7.4996,7.4996,0,0,0-9.41162-8.44726L189.82751,92.62986a7.499,7.499,0,0,0-5.36767,5.88672l-6.19629,34.17823-3.42578-38.74463a7.50006,7.50006,0,0,0-10.99805-5.959L142.45111,99.39012l-.72906-27.394a7.50018,7.50018,0,0,0-10.88379-6.49317L97.34216,82.45115a7.50061,7.50061,0,0,0-4.11328,6.793l.09015,6.70117-14.92511-7.9541a7.50056,7.50056,0,0,0-11.01123,6.12989l-3.564,54.5271L51.51892,100.333a7.49842,7.49842,0,0,0-5.75439-5.49512l-36.751-7.57324A7.50055,7.50055,0,0,0,.20056,96.334l25.442,107.75952A23.49681,23.49681,0,0,0,4.932,230.72361L31.74109,422.46483a28.92991,28.92991,0,0,0,28.50635,24.83886H179.67273a28.93029,28.93029,0,0,0,28.50635-24.83984l.29614-2.11792a69.17943,69.17943,0,0,0,55.04468,26.95483H424.85a69.57893,69.57893,0,0,0,69.5-69.5v-20.2456a36.58388,36.58388,0,0,0,17.6499-31.28467v-3.88965A36.24528,36.24528,0,0,0,505.09882,300.99632Zm-10.07892-17.5354a18.00628,18.00628,0,0,1-9.36133,15.96387,18.20467,18.20467,0,0,1-18.70557-.52539c-8.355-5.21778-17.17675-7.64844-27.76318-7.64844-18.38135,0-27.86719,7.28125-36.23682,13.70508-7.41259,5.69043-13.81445,10.60449-27.103,10.60449-13.28272,0-19.68262-4.91406-27.09278-10.60352-8.3667-6.4248-17.8501-13.70605-36.22754-13.70605-18.37695,0-27.86035,7.28125-36.227,13.70605-7.41015,5.68946-13.81006,10.60352-27.09277,10.60352-11.92114,0-18.30011-3.96216-24.84082-8.88818l5.80548-41.521H476.7699a18.27729,18.27729,0,0,1,18.25,18.30957Zm-231.5-102.76953H424.85a54.56158,54.56158,0,0,1,54.5,54.5V250.2595c-.85468-.06543-1.71387-.10815-2.58008-.10815H232.27179l2.71637-19.42774a23.491,23.491,0,0,0-16.77228-25.85156A54.3274,54.3274,0,0,1,263.5199,180.69139Zm-80.2544,8.50293,15.11524-83.376,20.29248-5.65137L201.569,203.66722q-.07352.14465-.14642.29l-16.858.00024-1.30365-14.74365Zm-22.37109-82.63574,8.61206,97.39941H167.851a7.49768,7.49768,0,0,0-5.31006,2.2041A60.26819,60.26819,0,0,1,145.611,218.12742l-2.71393-101.977Zm-33.852-22.32422,3.68927,138.63794a59.96539,59.96539,0,0,1-20.70172.1455l-1.54029-114.52075-.00055-.04126-.19818-14.73315Zm-51.33692,112.532c.00129-.02222.00324-.04419.00434-.06665l5.88287-90.00635,11.95667,6.37256,1.417,105.353a60.22033,60.22033,0,0,1-17.587-12.25782,7.49073,7.49073,0,0,0-2.1889-1.51464ZM17.50037,104.32908,38.1405,108.582l22.51612,88.4458-.45288,6.9292h-19.181ZM208.90118,308.97532l-6.10858,43.689c-.01623.10522-.03241.2102-.04413.31543l-5.90966,42.26636c-.00721.05908-.019.11767-.02478.17724l-3.49042,24.96338a13.86506,13.86506,0,0,1-13.65088,11.917H60.24744a13.86467,13.86467,0,0,1-13.65088-11.916L19.78748,228.64744a8.41756,8.41756,0,0,1,2.00976-6.7832,8.33221,8.33221,0,0,1,6.37158-2.90723l6.89106.00025.02105.00171.03083-.00171,33.93743.00073a75.10366,75.10366,0,0,0,101.82178-.001h35.28974c.07037.00049.14068.00147.21087,0h5.37976a8.33218,8.33218,0,0,1,6.37158,2.90723,8.41753,8.41753,0,0,1,2.00977,6.7832L208.9361,308.72557C208.92218,308.80882,208.91229,308.89207,208.90118,308.97532ZM479.35,377.80076a54.56158,54.56158,0,0,1-54.5,54.5H263.5199a54.216,54.216,0,0,1-51.56647-36.83154l4.56213-32.62842h27.95069l27.87591,41.84082a7.49992,7.49992,0,0,0,12.4834,0l27.87592-41.84082H479.35Zm-216.85975-14.96h32.18726l-16.09363,24.15625Zm234.50965-36.57031a21.59478,21.59478,0,0,1-21.56983,21.57031H219.52966c-.3056,0-.60772-.02417-.91162-.03686l3.42963-24.52906c6.64636,4.05323,14.92944,7.28565,27.16217,7.28565,18.37744,0,27.86084-7.28125,36.228-13.70606C292.84753,311.165,299.247,306.251,312.52966,306.251s19.68262,4.91406,27.09278,10.60351c8.3667,6.42481,17.85009,13.70606,36.22754,13.70606,18.38134,0,27.86767-7.28125,36.23681-13.70508,7.4126-5.69043,13.81446-10.60449,27.103-10.60449,9.88476,0,15.56445,2.71484,19.81738,5.37109a33.01538,33.01538,0,0,0,33.9253.9209c.43817-.24292.85754-.50684,1.28112-.76611a21.42346,21.42346,0,0,1,2.78626,10.604Z"/></svg>