<svg width="28" height="29" viewBox="0 0 28 29" fill="none" xmlns="http://www.w3.org/2000/svg">
<path d="M22.3125 25.375L22.3147 21.9766L19.6875 22.6563L22.3151 18.8047C22.3151 18.8047 22.3143 12.1995 22.3129 9.06205C22.3128 8.82177 22.2206 8.59138 22.0565 8.42152C21.8924 8.25167 21.6699 8.15625 21.4379 8.15625H14" stroke="white" stroke-width="1.14685" stroke-miterlimit="2" stroke-linecap="round" stroke-linejoin="round"/>
<path d="M18.8125 9.96874H20.5625V12.2344M5.6875 25.375V14.5281C5.6875 14.2499 5.87256 14.0079 6.13463 13.9449C6.87332 13.7684 7.6127 13.595 8.35275 13.4247C8.60268 13.3672 8.86199 13.3695 9.11096 13.4313C9.35992 13.4932 9.59198 13.6131 9.7895 13.7818L13.7896 17.1984C13.923 17.3121 14 17.4816 14 17.6605V25.375M6.35338 11.1337C6.27103 11.1469 6.18689 11.1415 6.10675 11.1179C6.02661 11.0942 5.95236 11.0529 5.8891 10.9967C5.82584 10.9405 5.77506 10.8708 5.74026 10.7924C5.70547 10.714 5.68747 10.6287 5.6875 10.5424V4.34727C5.6876 4.20864 5.71838 4.07188 5.7775 3.9475C5.83661 3.82312 5.92247 3.71444 6.02848 3.62981C6.13449 3.54517 6.25783 3.48684 6.38901 3.4593C6.52019 3.43176 6.65572 3.43573 6.78519 3.47093L13.3477 5.25987C13.5346 5.31074 13.7 5.42433 13.8181 5.58288C13.9361 5.74143 14.0001 5.93601 14 6.13621V14.5077C14.0001 14.5927 13.9731 14.6754 13.9232 14.743C13.8733 14.8105 13.8032 14.8591 13.7239 14.8811C13.6446 14.9032 13.5605 14.8975 13.4846 14.865C13.4088 14.8324 13.3454 14.7748 13.3044 14.7012L11.4822 11.4382C11.3124 11.1344 11.058 10.8908 10.7523 10.7392C10.4467 10.5876 10.1039 10.5351 9.76894 10.5886L6.35338 11.1337Z" stroke="white" stroke-width="1.14685" stroke-miterlimit="2" stroke-linecap="round" stroke-linejoin="round"/>
<path d="M9.18836 6.34374L7.82293 5.63686C7.78247 5.61543 7.73736 5.60517 7.69196 5.60706C7.64655 5.60896 7.60239 5.62295 7.56373 5.64769C7.52507 5.67242 7.49322 5.70706 7.47126 5.74827C7.4493 5.78947 7.43797 5.83584 7.43836 5.88291V7.24999" stroke="white" stroke-width="1.14685" stroke-miterlimit="2" stroke-linecap="round" stroke-linejoin="round"/>
</svg>
