<svg width="32" height="32" viewBox="0 0 32 32" fill="none" xmlns="http://www.w3.org/2000/svg">
<path d="M5.33333 5.33334V8H26.6667V5.33334M5.33333 9.33334L4 16V18.6667H5.33333V26.6667H17.3333C17.2667 26.2133 17.2267 25.7467 17.2267 25.2667C17.2267 23.64 17.7333 22.04 18.6667 20.7067V18.6667H20.72C22.0533 17.7733 23.6133 17.28 25.2133 17.28C26.16 17.28 27.1067 17.4533 28 17.7867V16L26.6667 9.33334M8 18.6667H16V24H8M24 20V24H20V26.6667H24V30.6667H26.6667V26.6667H30.6667V24H26.6667V20" fill="white"/>
</svg>
