<svg width="32" height="32" viewBox="0 0 32 32" fill="none" xmlns="http://www.w3.org/2000/svg">
<path d="M13 30V26.25C13 25.56 13.56 25 14.25 25H17.75C18.44 25 19.01 25.56 19.01 26.26V30H30V9.3C30 8.99796 29.9405 8.69888 29.8249 8.41983C29.7093 8.14078 29.5399 7.88723 29.3263 7.67365C29.1128 7.46008 28.8592 7.29066 28.5802 7.17508C28.3011 7.05949 28.002 7 27.7 7H26V4.46C26 3.1 24.9 2 23.54 2H8.46C7.1 2 6 3.1 6 4.46V7H4.3C3.99796 7 3.69888 7.05949 3.41983 7.17508C3.14078 7.29066 2.88723 7.46008 2.67365 7.67365C2.46008 7.88723 2.29066 8.14078 2.17508 8.41983C2.05949 8.69888 2 8.99796 2 9.3V30H13ZM6 24H5C4.45 24 4 23.55 4 23V22C4 21.45 4.45 21 5 21H6V24ZM6 19H5C4.45 19 4 18.55 4 18V17C4 16.45 4.45 16 5 16H6V19ZM6 14H5C4.45 14 4 13.55 4 13V12C4 11.45 4.45 11 5 11H6V14ZM26 11H27C27.55 11 28 11.45 28 12V13C28 13.56 27.55 14 27 14H26V11ZM26 16H27C27.55 16 28 16.45 28 17V18C28 18.56 27.55 19 27 19H26V16ZM26 21H27C27.55 21 28 21.45 28 22V23C28 23.56 27.55 24 27 24H26V21ZM11.5 18C11.23 18 11 17.78 11 17.5V15.49C11 15.22 11.22 14.99 11.5 14.99H14.51C14.78 14.99 15.01 15.21 15.01 15.49V17.5C15.0074 17.6335 14.9525 17.7607 14.8571 17.8542C14.7618 17.9477 14.6335 18 14.5 18H11.5ZM21 15.5V17.51C21 17.78 20.78 18 20.51 18.01H17.5C17.22 18.01 17 17.78 17 17.51V15.5C17 15.22 17.23 15 17.5 15H20.5C20.78 15 21 15.23 21 15.5ZM15 20.5V22.51C15 22.78 14.78 23 14.51 23.01H11.5C11.22 23.01 11 22.78 11 22.51V20.5C11 20.22 11.23 20 11.5 20H14.5C14.78 20 15 20.23 15 20.5ZM21 20.5V22.51C21 22.78 20.78 23 20.51 23.01H17.5C17.22 23.01 17 22.78 17 22.51V20.5C17 20.22 17.23 20 17.5 20H20.5C20.78 20 21 20.23 21 20.5ZM15 5.5V7.51C15 7.78 14.78 8 14.51 8.01H11.5C11.22 8.01 11 7.78 11 7.51V5.5C11 5.22 11.23 5 11.5 5H14.5C14.78 5 15 5.23 15 5.5ZM21 5.5V7.51C21 7.78 20.78 8 20.51 8.01H17.5C17.22 8.01 17 7.78 17 7.51V5.5C17 5.22 17.23 5 17.5 5H20.5C20.78 5 21 5.23 21 5.5ZM15 10.5V12.51C15 12.78 14.78 13 14.51 13.01H11.5C11.22 13.01 11 12.78 11 12.51V10.5C11 10.22 11.23 10 11.5 10H14.5C14.78 10 15 10.23 15 10.5ZM21 10.5V12.51C21 12.78 20.78 13 20.51 13.01H17.5C17.22 13.01 17 12.78 17 12.51V10.5C17 10.22 17.23 10 17.5 10H20.5C20.78 10 21 10.23 21 10.5Z" fill="white"/>
</svg>
