<svg width="32" height="32" viewBox="0 0 32 32" fill="none" xmlns="http://www.w3.org/2000/svg">
<path d="M28.5465 15.2133L16.7732 3.44C16.2798 2.94667 15.5998 2.66667 14.8932 2.66667H5.33317C3.8665 2.66667 2.6665 3.86667 2.6665 5.33333V14.8933C2.6665 15.6 2.9465 16.28 3.45317 16.7733L15.2265 28.5467C16.2665 29.5867 17.9598 29.5867 18.9998 28.5467L28.5598 18.9867C29.5998 17.9467 29.5998 16.2667 28.5465 15.2133ZM8.6665 10.6667C7.55984 10.6667 6.6665 9.77333 6.6665 8.66667C6.6665 7.56 7.55984 6.66667 8.6665 6.66667C9.77317 6.66667 10.6665 7.56 10.6665 8.66667C10.6665 9.77333 9.77317 10.6667 8.6665 10.6667Z" fill="white"/>
</svg>
