<svg width="32" height="32" viewBox="0 0 32 32" fill="none" xmlns="http://www.w3.org/2000/svg">
<path d="M9.7969 11.6L11.0625 3.2H4.4801L1.7297 10.4C1.6449 10.656 1.6001 10.9216 1.6001 11.2C1.6001 12.9664 3.4401 14.4 5.7137 14.4C7.8097 14.4 9.5425 13.1776 9.7969 11.6ZM16.0001 14.4C18.2721 14.4 20.1137 12.9664 20.1137 11.2C20.1137 11.1344 20.1089 11.0688 20.1057 11.0064L19.2913 3.2H12.7089L11.8929 11C11.8891 11.0666 11.887 11.1333 11.8865 11.2C11.8865 12.9664 13.7281 14.4 16.0001 14.4ZM24.0001 16.0736V22.4H8.0001V16.0832C7.2993 16.336 6.5281 16.48 5.7137 16.48C5.4017 16.48 5.0993 16.4432 4.8001 16.4016V26.56C4.8001 27.792 5.8065 28.8 7.0369 28.8H24.9601C26.1921 28.8 27.2001 27.7904 27.2001 26.56V16.4032C26.8976 16.4496 26.5924 16.4758 26.2865 16.4816C25.5063 16.4808 24.7324 16.3427 24.0001 16.0736ZM30.2721 10.4L27.5185 3.2H20.9377L22.2017 11.5872C22.4481 13.1712 24.1809 14.4 26.2865 14.4C28.5585 14.4 30.4001 12.9664 30.4001 11.2C30.4001 10.9216 30.3553 10.656 30.2721 10.4Z" fill="white"/>
</svg>
