<svg width="32" height="32" viewBox="0 0 32 32" fill="none" xmlns="http://www.w3.org/2000/svg">
<g clip-path="url(#clip0_1467_9936)">
<path fill-rule="evenodd" clip-rule="evenodd" d="M7.60917 5.172C8.35914 4.4218 9.37639 4.00023 10.4372 4C11.4905 4 13.0345 3.70667 13.5065 4.948C13.699 5.45339 14.0405 5.88837 14.4857 6.19527C14.931 6.50218 15.459 6.66652 15.9998 6.66652C16.5406 6.66652 17.0687 6.50218 17.5139 6.19527C17.9592 5.88837 18.3007 5.45339 18.4932 4.948C18.9652 3.708 20.5105 4.00133 21.5625 4.00133C22.6226 4.00156 23.6393 4.42262 24.3892 5.172L29.3332 10.1147C29.8331 10.6147 30.1139 11.2929 30.1139 12C30.1139 12.7071 29.8331 13.3853 29.3332 13.8853L27.3625 15.856C26.6692 16.5493 25.7012 16.7747 24.8292 16.5573L25.1918 23.8C25.2189 24.3414 25.1357 24.8827 24.9472 25.391C24.7587 25.8992 24.4688 26.3639 24.0952 26.7567C23.7216 27.1495 23.2721 27.4623 22.7739 27.676C22.2757 27.8897 21.7393 28 21.1972 28H10.8025C10.2604 28 9.72397 27.8897 9.22578 27.676C8.72759 27.4623 8.27805 27.1495 7.90445 26.7567C7.53085 26.3639 7.24099 25.8992 7.05248 25.391C6.86397 24.8827 6.78073 24.3414 6.80784 23.8L7.17051 16.5573C6.72366 16.6697 6.25528 16.6642 5.81121 16.5413C5.36714 16.4183 4.9626 16.1822 4.63717 15.856L2.66651 13.8853C2.16658 13.3853 1.88574 12.7071 1.88574 12C1.88574 11.2929 2.16658 10.6147 2.66651 10.1147L7.60917 5.172Z" fill="white"/>
</g>
<defs>
<clipPath id="clip0_1467_9936">
<rect width="32" height="32" fill="white"/>
</clipPath>
</defs>
</svg>
