<svg width="116" height="25" viewBox="0 0 116 25" fill="none" xmlns="http://www.w3.org/2000/svg">
<path d="M12.2366 24.3777C5.47883 24.5018 -0.0190403 18.9562 4.95631e-05 12.2366C0.0191394 5.35469 5.35474 0 12.2748 0C18.9467 0 24.3396 5.36424 24.3968 12.1507C24.4637 18.8894 18.8322 24.5113 12.2366 24.3777ZM23.7192 12.2366C23.786 5.91784 18.5649 0.773138 12.3798 0.706323C5.8129 0.629964 0.677738 5.87966 0.668193 12.1602C0.658648 18.5839 5.79381 23.7191 12.1984 23.7286C18.5458 23.7382 23.7382 18.5935 23.7192 12.2366Z" fill="#1D8AE8"/>
<path d="M12.208 21.7051C6.90103 21.7338 2.70127 17.4767 2.69173 12.3034C2.68218 6.84369 6.85331 2.73938 12.208 2.71075C17.3813 2.68211 21.7147 6.90096 21.7052 12.2366C21.6956 17.5531 17.305 21.7815 12.208 21.7051ZM12.0935 6.45235C11.5685 6.37599 11.0626 6.64325 10.5663 6.94869C9.42089 7.65501 9.2968 9.78352 10.0031 10.9289C10.509 11.7498 11.2058 12.3988 11.8739 13.0765C12.3321 13.5347 12.8093 13.9928 13.0384 14.6228C13.1816 15.0141 13.2293 15.3959 12.9239 15.7395C12.6184 16.0927 12.2271 16.1118 11.8358 15.9877C11.368 15.8445 11.2726 15.4055 11.2249 15.0046C11.1772 14.5942 10.9863 14.4414 10.6045 14.4796C10.4326 14.4987 10.2608 14.5273 10.0795 14.5273C9.62133 14.5369 9.47816 14.7851 9.4877 15.205C9.52588 16.6845 10.3849 17.5435 11.7403 17.7917C12.8952 18.0017 14.2697 17.3526 14.6515 16.4077C15.1192 15.2432 15.0524 14.1169 14.2888 13.067C13.6111 12.1316 12.7234 11.3966 11.998 10.5185C11.6449 10.089 11.3585 9.65944 11.3967 9.06766C11.4349 8.50451 11.5876 8.28497 12.0553 8.25634C12.523 8.21816 12.7902 8.45678 12.8857 8.98175C13.048 9.8217 13.048 9.8217 13.8975 9.68808C14.0215 9.66899 14.1456 9.63081 14.2697 9.61172C14.6133 9.55445 14.7469 9.34446 14.7279 9.01039C14.6706 7.60729 13.7925 6.47144 12.0935 6.45235Z" fill="#1D8AE8"/>
<path d="M101.23 23.0274C99.8615 23.2852 98.553 22.7102 97.2445 22.9878C97.0066 23.0274 96.7687 23.0076 96.6695 22.7301C96.5704 22.4723 96.6894 22.2741 96.8876 22.1353C97.4428 21.7387 97.8591 21.2828 98.0177 20.5888C98.1168 20.1923 98.553 20.1527 98.9297 20.1328C99.584 20.113 100.238 20.1328 100.912 20.113C101.765 20.0734 102.578 20.0535 102.677 21.2431C102.716 21.6 103.113 21.7982 103.41 22.0163C103.609 22.1551 103.787 22.3137 103.728 22.5714C103.668 22.8688 103.43 23.0274 103.153 23.0473C102.479 23.0473 101.824 23.0274 101.23 23.0274Z" fill="#1D8AE8"/>
<path d="M100.218 15.1565C99.921 15.1565 99.6236 15.1565 99.3263 15.1565C98.6918 15.1763 98.4143 14.8591 98.4737 14.2445C98.5134 13.6299 98.4936 12.9955 98.6125 12.3809C98.8703 11.1715 99.3857 10.8146 100.575 10.993C101.547 11.1318 101.824 11.8257 101.844 12.6981C101.844 12.9558 101.824 13.2334 101.864 13.4911C102.161 15.216 101.904 15.1565 100.218 15.1565Z" fill="#1D8AE8"/>
<path d="M100.199 18.9235C100.159 18.9235 100.139 18.9235 100.099 18.9235C97.7798 18.9235 97.5419 18.5666 98.3547 16.4254C98.3944 16.3262 98.434 16.2469 98.4935 16.1676C98.8504 15.7315 101.051 15.6323 101.725 16.0288C102.32 16.3659 102.736 17.8925 102.439 18.5468C102.3 18.8243 102.062 18.9036 101.785 18.9036C101.249 18.9235 100.734 18.9036 100.199 18.9235Z" fill="#1D8AE8"/>
<path d="M95.9161 1.11964C96.4712 1.09981 96.8876 1.67477 96.6695 2.17042C96.1342 3.35999 96.1342 4.5099 96.7686 5.65981C97.0065 6.07616 97.0859 6.59164 96.5704 6.88903C96.0945 7.16659 95.7575 6.78989 95.4998 6.43302C94.4688 5.00555 94.4292 2.88416 95.361 1.45668C95.4998 1.25842 95.6584 1.11964 95.9161 1.11964Z" fill="#1D8AE8"/>
<path d="M105.651 4.01428C105.77 4.80732 105.472 5.67967 104.957 6.47271C104.719 6.84941 104.382 7.16663 103.906 6.88906C103.41 6.6115 103.371 6.19515 103.668 5.71932C104.322 4.66854 104.362 3.55828 103.906 2.40837C103.708 1.89289 103.668 1.39724 104.263 1.15932C104.878 0.901583 105.016 1.47654 105.274 1.83341C105.671 2.46785 105.631 3.16176 105.651 4.01428Z" fill="#1D8AE8"/>
<path d="M98.7711 3.35998C98.8108 2.58677 99.5047 2.01181 100.337 2.05146C101.071 2.09112 101.864 2.90398 101.785 3.53842C101.705 4.19268 100.714 5.02537 100.099 4.98572C99.4254 4.92624 98.7116 4.07372 98.7711 3.35998Z" fill="#1D8AE8"/>
<path d="M101.289 8.95095C101.368 10.2396 100.992 10.5767 99.8021 10.2991C99.3262 10.1802 99.0487 9.94225 99.0685 9.42677C99.0883 9.03025 99.1082 8.63373 99.1478 8.25703C99.1875 7.54329 99.5642 7.22607 100.298 7.22607C101.031 7.22607 101.289 7.58295 101.269 8.25703C101.249 8.49495 101.269 8.71303 101.289 8.95095Z" fill="#1D8AE8"/>
<path d="M34.0192 23.2852C33.6822 23.2852 33.3253 23.2654 32.9486 23.2059C32.5719 23.1663 32.2547 23.1068 32.0168 23.0473C31.5013 22.9482 31.1246 22.8689 30.9065 22.8094C30.6884 22.7499 30.4703 22.7103 30.2721 22.6706C30.0936 21.7983 29.9549 21.1043 29.8755 20.5492C29.7962 19.9941 29.7566 19.5976 29.7566 19.3398C29.7566 19.2605 29.8755 19.2209 30.0936 19.2209C30.3514 19.2209 30.51 19.2803 30.6091 19.3993C31.0849 21.4414 32.2349 22.4327 34.0787 22.4327C34.7726 22.4327 35.3674 22.2146 35.863 21.7983C36.3587 21.3819 36.5966 20.7871 36.5966 20.0139C36.5966 19.7562 36.5371 19.4588 36.438 19.1019C36.3388 18.745 36.1009 18.4278 35.7441 18.1701C35.4665 17.952 35.2286 17.8132 35.0502 17.6943C34.8717 17.5951 34.6933 17.496 34.5148 17.3969C34.3364 17.2977 34.0985 17.1788 33.8209 17.0003L32.9882 16.5047C32.5521 16.247 32.1159 15.9297 31.6995 15.5927C31.2634 15.2557 30.9065 14.8591 30.6289 14.3833C30.3514 13.9273 30.1928 13.392 30.1928 12.817C30.1928 12.0835 30.391 11.4292 30.7677 10.8741C31.1444 10.319 31.6599 9.90262 32.2745 9.5854C32.8891 9.28801 33.5632 9.12939 34.2968 9.12939C34.5942 9.12939 34.8915 9.14922 35.1691 9.18888C35.4467 9.22853 35.6648 9.26818 35.8432 9.30783C36.2595 9.40696 36.5569 9.48627 36.7354 9.54574C36.9138 9.60522 37.1517 9.6647 37.4491 9.72418C37.6077 10.4577 37.7068 11.449 37.7068 12.7179C37.7068 12.817 37.6275 12.8567 37.4888 12.8567C37.1319 12.8567 36.9535 12.7774 36.9535 12.6386C36.8742 12.2223 36.7354 11.8059 36.4975 11.4094C36.2595 11.0129 35.9423 10.6758 35.526 10.3983C35.1295 10.1207 34.6338 9.98192 34.0787 9.98192C33.5037 9.98192 33.0675 10.081 32.7305 10.2991C32.4133 10.5172 32.1754 10.7948 32.0564 11.112C31.9176 11.449 31.8582 11.7861 31.8582 12.143C31.8582 12.4998 31.9375 12.8369 32.1159 13.1937C32.2745 13.5506 32.5322 13.8282 32.8495 14.0661C33.2856 14.3833 33.7218 14.6807 34.158 14.9583C34.5942 15.2358 35.0502 15.5134 35.526 15.8108C35.9622 16.0883 36.4182 16.4056 36.8742 16.7426C37.3103 17.0796 37.687 17.4762 37.9844 17.9123C38.2818 18.3485 38.4404 18.8442 38.4404 19.4191C38.4404 20.1527 38.2422 20.807 37.8258 21.4017C37.4293 21.9767 36.894 22.4327 36.2199 22.7697C35.526 23.1266 34.8122 23.2852 34.0192 23.2852Z" fill="#1D8AE8"/>
<path d="M40.1455 23.1464C40.086 23.0869 40.0662 22.9878 40.0662 22.8292C40.0662 22.6309 40.086 22.5318 40.1455 22.5318C40.2645 22.5318 40.4429 22.512 40.6412 22.4723C40.8593 22.4327 41.0377 22.393 41.236 22.3137C41.4144 22.2344 41.5135 22.1749 41.5532 22.0956C41.6127 21.8974 41.6523 21.6595 41.6721 21.3422C41.692 21.0448 41.7118 20.6682 41.7118 20.232V12.1231C41.7118 11.6869 41.692 11.3102 41.6721 11.0129C41.6523 10.7155 41.6127 10.4577 41.5532 10.2793C41.5334 10.2 41.4144 10.1207 41.236 10.0612C41.0575 10.0017 40.8593 9.94224 40.6412 9.90259C40.4231 9.86294 40.2645 9.84312 40.1455 9.84312C40.086 9.84312 40.0662 9.74399 40.0662 9.56555C40.0662 9.40694 40.086 9.28798 40.1455 9.22851L42.6634 9.32764C42.7824 9.32764 43.0401 9.30781 43.4367 9.28799C43.8332 9.26816 44.3883 9.24833 45.0822 9.20868C45.102 9.32764 45.1219 9.42677 45.1219 9.5259C45.1219 9.72416 45.102 9.82329 45.0426 9.82329C44.9633 9.82329 44.8047 9.84311 44.6064 9.90259C44.3883 9.94224 44.2099 10.0017 44.0116 10.0612C43.8332 10.1207 43.734 10.2 43.6944 10.2595C43.5754 10.7353 43.516 11.3895 43.516 12.2024V20.1527C43.516 20.9655 43.5754 21.6 43.6944 22.0956C43.7142 22.1551 43.8332 22.2146 44.0116 22.2741C44.19 22.3534 44.3883 22.393 44.6064 22.4327C44.8245 22.4723 44.9633 22.4921 45.0426 22.4921C45.102 22.4921 45.1219 22.5913 45.1219 22.8094C45.1219 22.8887 45.102 22.9878 45.0822 23.1068C44.3883 23.0869 43.8332 23.0473 43.4367 23.0275C43.0401 23.0076 42.7824 22.9878 42.6634 22.9878L40.1455 23.1464Z" fill="#1D8AE8"/>
<path d="M46.6683 23.1464C46.589 23.0671 46.5692 22.968 46.5692 22.8292C46.5692 22.6309 46.6089 22.5318 46.6683 22.5318C46.8071 22.5318 46.9856 22.512 47.2036 22.4723C47.4217 22.4327 47.6398 22.3732 47.8579 22.3137C48.076 22.2344 48.2148 22.1749 48.2941 22.0758C48.532 21.8181 48.651 21.2233 48.6708 20.2518C48.6906 18.6261 48.7303 17.1788 48.7699 15.8901C48.8096 14.6014 48.8294 13.5506 48.869 12.7179C48.8889 11.8852 48.9087 11.3499 48.9087 11.112C48.9087 10.7353 48.8889 10.4577 48.8294 10.2793C48.8096 10.2 48.6708 10.1207 48.4725 10.0612C48.2544 10.0017 48.0165 9.94224 47.7786 9.90259C47.5407 9.86294 47.3226 9.84312 47.1838 9.84312C47.1243 9.84312 47.1045 9.74399 47.1045 9.54572C47.1045 9.38712 47.1243 9.28798 47.1838 9.22851C47.5209 9.24833 47.8777 9.26816 48.2941 9.28799C48.6906 9.30781 49.107 9.32764 49.5233 9.32764C49.781 9.32764 50.0784 9.30781 50.3956 9.28799C50.7129 9.26816 51.0697 9.24833 51.4464 9.20868C51.5654 9.50607 52.9334 13.0153 55.5901 19.6769C55.6099 19.6967 55.6496 19.7165 55.6694 19.7165C55.7289 19.7165 55.7685 19.6967 55.7685 19.6372C56.4426 18.0313 57.0572 16.5642 57.6123 15.2556C58.1476 13.9273 58.6235 12.7575 59.0398 11.7266L59.8725 9.20868C60.3087 9.22851 60.6854 9.24833 60.9629 9.26816C61.2405 9.28799 61.4586 9.28799 61.5974 9.28799C62.0336 9.28799 62.4499 9.28799 62.8266 9.26816C63.2231 9.24833 63.58 9.22851 63.9369 9.20868C63.9765 9.32764 63.9963 9.44659 63.9963 9.5259C63.9963 9.72416 63.9567 9.82329 63.8972 9.82329H63.8575C63.6989 9.82329 63.5007 9.86294 63.2429 9.96207C62.9852 10.0612 62.8068 10.1405 62.6878 10.2396C62.5292 10.3586 62.4301 10.8344 62.4301 11.6473L62.6085 20.1328C62.6283 20.9457 62.7473 21.5802 62.9257 22.056C62.9654 22.1353 63.0843 22.2146 63.2628 22.2939C63.4412 22.3732 63.6395 22.4128 63.8575 22.4525C64.0756 22.4922 64.2342 22.512 64.3334 22.512C64.3929 22.512 64.4127 22.6111 64.4127 22.8094C64.4127 22.9085 64.3929 23.0076 64.373 23.1266C63.6791 23.1068 63.124 23.0671 62.7076 23.0473C62.2913 23.0275 62.0137 23.0076 61.8749 23.0076L59.357 23.1068C59.2976 23.0473 59.2777 22.9482 59.2777 22.7697C59.2777 22.5913 59.2976 22.4921 59.357 22.4921C59.4958 22.4921 59.7139 22.4525 59.9915 22.393C60.269 22.3137 60.4871 22.2542 60.6061 22.1749C60.7647 22.056 60.8638 21.7586 60.8638 21.2828V20.1725L60.6061 12.817C60.6061 12.6584 60.5862 12.4998 60.5466 12.3015C60.5069 12.1231 60.4673 11.9447 60.4276 11.8059C60.388 11.6671 60.3285 11.5878 60.2889 11.5878C60.269 11.5878 60.2294 11.6275 60.1897 11.7266L55.8478 22.2344C55.5901 22.8292 55.3323 23.1266 55.0746 23.1266C55.0548 23.1266 54.9953 23.1068 54.8962 23.0869L50.0983 10.9137C50.0586 12.8765 49.9991 14.641 49.9595 16.1676C49.9 17.7141 49.8603 18.9433 49.8207 19.8751C49.781 20.8069 49.7612 21.3621 49.7612 21.5008C49.7612 21.7586 49.8009 21.937 49.8802 22.0362C49.9396 22.1155 50.0784 22.1749 50.2965 22.2542C50.5146 22.3335 50.7525 22.393 50.9904 22.4327C51.2283 22.4723 51.4068 22.512 51.4861 22.512C51.5456 22.512 51.5654 22.6111 51.5654 22.8292C51.5654 22.9085 51.5456 23.0076 51.5257 23.1266C50.8318 23.1068 50.2767 23.0671 49.8802 23.0473C49.4836 23.0275 49.2259 23.0076 49.107 23.0076L46.6683 23.1464Z" fill="#1D8AE8"/>
<path d="M65.0272 23.1464C64.9678 23.087 64.9479 22.9878 64.9479 22.8292C64.9479 22.631 64.9678 22.5318 65.0272 22.5318C65.1859 22.5318 65.4039 22.4922 65.6815 22.4327C65.9392 22.3534 66.1177 22.2741 66.2168 22.1353C66.3754 21.937 66.534 21.6793 66.6926 21.3621C66.8512 21.0449 67.0297 20.6483 67.2081 20.1725L70.8561 10.8344C70.9354 10.6164 70.9949 10.4776 71.0147 10.3983C71.0345 10.319 71.0544 10.2397 71.0742 10.1802C71.094 10.1207 71.1337 10.0017 71.213 9.86296C71.3121 9.6647 71.4112 9.50609 71.5104 9.40696C71.6095 9.288 71.7681 9.24835 71.9862 9.24835L72.1646 9.30783L76.3479 20.351C76.4669 20.6682 76.5858 20.9656 76.685 21.2035C76.7841 21.4414 76.8832 21.6793 76.9427 21.8577C77.0022 21.9965 77.1211 22.1155 77.2996 22.2146C77.478 22.3137 77.6763 22.393 77.8944 22.4723C78.0926 22.5318 78.2512 22.5715 78.3702 22.5715C78.4297 22.5715 78.4495 22.7103 78.4495 22.968C78.4495 22.9878 78.4495 23.0275 78.4297 23.0671C78.4297 23.1068 78.4098 23.1464 78.39 23.1861C77.6961 23.1663 77.1608 23.1266 76.7643 23.1068C76.3876 23.087 76.1497 23.0671 76.0902 23.0671L73.6714 23.1663C73.6119 23.1068 73.5921 22.9878 73.5921 22.8292C73.5921 22.6508 73.6318 22.5715 73.6912 22.5715C73.8498 22.5715 74.0679 22.5318 74.3257 22.4723C74.5834 22.393 74.7222 22.3137 74.7618 22.1948C74.7817 22.1353 74.7817 22.0758 74.8015 22.0362C74.8015 21.9767 74.8213 21.9172 74.8213 21.8776C74.8213 21.6991 74.8015 21.481 74.7618 21.2431C74.7222 21.0052 74.6627 20.807 74.6231 20.6682L73.6912 18.071C73.6516 18.0115 73.6119 17.9917 73.5723 17.9917C73.037 17.952 72.5017 17.9322 71.9862 17.9322C71.6293 17.9322 71.2328 17.952 70.7768 17.9718C70.3208 17.9917 69.845 18.0115 69.3295 18.0511L69.2304 18.1106L68.3382 20.4104C68.1994 20.7673 68.1003 21.0449 68.0606 21.2828C68.021 21.5207 67.9813 21.6991 67.9813 21.8379C67.9813 22.0362 68.0408 22.175 68.1399 22.2543C68.2589 22.3534 68.477 22.4327 68.7545 22.4922C69.0321 22.5516 69.2304 22.5913 69.3692 22.5913C69.4088 22.5913 69.4286 22.6706 69.4485 22.849C69.4485 23.0076 69.4485 23.1266 69.4088 23.2059L67.2478 23.1068C66.8512 23.087 66.4745 23.087 66.1177 23.1266C65.6815 23.087 65.3445 23.1266 65.0272 23.1464ZM71.213 16.8814C71.8474 16.8814 72.4818 16.8616 73.1163 16.8219L73.1758 16.7228L71.4905 12.1033L69.6864 16.7624C69.6864 16.8219 69.7062 16.8417 69.726 16.8417C70.0829 16.8616 70.4001 16.8616 70.638 16.8814C70.8759 16.8616 71.0742 16.8814 71.213 16.8814Z" fill="#1D8AE8"/>
<path d="M91.277 23.1861C91.0589 23.1861 90.821 23.0275 90.5831 22.7102L82.4742 11.2111V20.1328C82.4742 21.0845 82.5138 21.7388 82.613 22.0758C82.6328 22.1353 82.7716 22.1948 82.9698 22.2741C83.1879 22.3534 83.4258 22.4128 83.6638 22.4525C83.9215 22.4922 84.0801 22.5318 84.1594 22.5318C84.1991 22.5318 84.2189 22.6111 84.2387 22.7895C84.2387 22.9481 84.2387 23.0671 84.1991 23.1464C83.5052 23.1266 82.95 23.0869 82.5535 23.0671C82.157 23.0473 81.8992 23.0275 81.8001 23.0275L79.4012 23.1266C79.3615 23.0869 79.3417 22.9878 79.3417 22.8094C79.3417 22.6111 79.3615 22.512 79.4012 22.512C79.5399 22.512 79.7382 22.4922 79.9959 22.4327C80.2537 22.393 80.4916 22.3137 80.7097 22.2542C80.9278 22.1749 81.0665 22.0956 81.0864 22.0163C81.2251 21.6793 81.3045 21.025 81.3045 20.0535V11.8456C81.3045 11.1318 81.2648 10.6163 81.1657 10.2793C81.1458 10.2 81.0071 10.1207 80.8088 10.0612C80.5907 10.0017 80.3528 9.94224 80.1149 9.90259C79.877 9.86294 79.6589 9.84312 79.5201 9.84312C79.4606 9.84312 79.4408 9.74399 79.4408 9.56555C79.4408 9.40694 79.4606 9.28798 79.5201 9.22851C80.0554 9.24833 80.5114 9.24833 80.8683 9.26816C81.2252 9.26816 81.4829 9.28799 81.6613 9.28799C82.0182 9.28799 82.3354 9.28799 82.6328 9.26816C82.9104 9.26816 83.1483 9.24833 83.3465 9.22851C83.6043 9.70433 84.3378 10.7948 85.5076 12.4998C86.6773 14.2049 88.3229 16.5245 90.4244 19.4786C90.4641 19.2407 90.4839 18.9631 90.4839 18.6261V12.1231C90.4839 11.2508 90.4443 10.6362 90.3451 10.2793C90.3253 10.2 90.1865 10.1207 89.9685 10.0414C89.7504 9.96207 89.5125 9.92242 89.2547 9.86294C88.997 9.82329 88.8185 9.78364 88.6996 9.78364C88.6401 9.78364 88.6203 9.70433 88.6203 9.5259C88.6203 9.36729 88.6401 9.26816 88.6996 9.20868C88.8185 9.20868 89.0366 9.22851 89.334 9.24833C89.6314 9.26816 89.9486 9.28798 90.2857 9.30781C90.6227 9.32764 90.9201 9.34746 91.1778 9.34746C91.5347 9.34746 91.9907 9.32764 92.5657 9.28799C93.101 9.24834 93.438 9.22851 93.5371 9.22851C93.557 9.34746 93.5768 9.44659 93.5768 9.54572C93.5768 9.70433 93.557 9.80346 93.4975 9.80346C93.4182 9.80346 93.2397 9.82329 92.982 9.88277C92.7243 9.94225 92.4665 10.0017 92.2485 10.0612C92.0105 10.1405 91.8916 10.2 91.8519 10.2793C91.7925 10.4974 91.7528 10.7749 91.733 11.0922C91.7131 11.4094 91.6933 11.7861 91.6933 12.2222V20.1725C91.6933 21.0449 91.7131 22.0163 91.7528 23.1068C91.614 23.1662 91.4752 23.1861 91.277 23.1861Z" fill="#1D8AE8"/>
<path d="M111.579 23.2852C111.242 23.2852 110.885 23.2654 110.508 23.2059C110.132 23.1662 109.814 23.1068 109.576 23.0473C109.061 22.9482 108.684 22.8689 108.466 22.8094C108.248 22.7499 108.03 22.7102 107.832 22.6706C107.653 21.7983 107.514 21.1043 107.435 20.5492C107.356 19.9941 107.316 19.5976 107.316 19.3398C107.316 19.2605 107.435 19.2209 107.653 19.2209C107.911 19.2209 108.07 19.2803 108.169 19.3993C108.664 21.4017 109.814 22.4129 111.638 22.4129C112.332 22.4129 112.927 22.1948 113.423 21.7784C113.918 21.3621 114.156 20.7673 114.156 19.9941C114.156 19.7363 114.097 19.4389 113.998 19.0821C113.898 18.7252 113.661 18.408 113.304 18.1502C113.026 17.9322 112.788 17.7934 112.61 17.6744C112.431 17.5753 112.253 17.4762 112.074 17.377C111.896 17.2779 111.658 17.1589 111.381 16.9805L110.548 16.4849C110.112 16.2271 109.676 15.9099 109.259 15.5729C108.823 15.2358 108.466 14.8393 108.189 14.3635C107.911 13.9075 107.752 13.3722 107.752 12.7972C107.752 12.0636 107.951 11.4094 108.327 10.8543C108.704 10.2991 109.22 9.88278 109.834 9.56556C110.449 9.26817 111.123 9.10956 111.856 9.10956C112.154 9.10956 112.451 9.12939 112.729 9.16904C113.006 9.20869 113.224 9.24835 113.403 9.288C113.819 9.38713 114.117 9.46643 114.295 9.52591C114.473 9.58539 114.711 9.64486 115.009 9.70434C115.167 10.4379 115.266 11.4292 115.266 12.6981C115.266 12.7972 115.187 12.8369 115.048 12.8369C114.692 12.8369 114.513 12.7576 114.513 12.6188C114.434 12.2024 114.295 11.7861 114.057 11.3896C113.819 10.993 113.502 10.656 113.086 10.3784C112.689 10.1009 112.193 9.96208 111.638 9.96208C111.063 9.96208 110.627 10.0612 110.29 10.2793C109.973 10.4974 109.735 10.7749 109.616 11.0922C109.477 11.4292 109.418 11.7663 109.418 12.1231C109.418 12.48 109.497 12.817 109.676 13.1739C109.834 13.5308 110.092 13.8083 110.409 14.0463C110.845 14.3635 111.281 14.6609 111.718 14.9384C112.154 15.216 112.61 15.4936 113.086 15.7909C113.522 16.0685 113.978 16.3857 114.434 16.7228C114.87 17.0598 115.247 17.4563 115.544 17.8925C115.841 18.3287 116 18.8243 116 19.3993C116 20.1329 115.802 20.7871 115.385 21.3819C114.989 21.9569 114.454 22.4129 113.78 22.7499C113.086 23.1266 112.352 23.2852 111.579 23.2852Z" fill="#1D8AE8"/>
</svg>
