<svg width="40" height="40" viewBox="0 0 40 40" fill="none" xmlns="http://www.w3.org/2000/svg">
<circle cx="20" cy="20" r="20" fill="url(#paint0_linear)"/>
<path d="M25 28.8889H15C14.0815 28.8889 13.3334 28.1415 13.3334 27.2222V19.4444C13.3334 18.5252 14.0815 17.7778 15 17.7778H25C25.9186 17.7778 26.6667 18.5252 26.6667 19.4444V27.2222C26.6667 28.1415 25.9186 28.8889 25 28.8889ZM15 18.8889C14.6941 18.8889 14.4445 19.1378 14.4445 19.4444V27.2222C14.4445 27.5289 14.6941 27.7778 15 27.7778H25C25.306 27.7778 25.5556 27.5289 25.5556 27.2222V19.4444C25.5556 19.1378 25.306 18.8889 25 18.8889H15Z" fill="#FFF3F3"/>
<path d="M23.8889 18.8889C23.5822 18.8889 23.3333 18.64 23.3333 18.3333V15.5556C23.3333 13.7178 21.8378 12.2222 20 12.2222C18.1622 12.2222 16.6667 13.7178 16.6667 15.5556V18.3333C16.6667 18.64 16.4178 18.8889 16.1111 18.8889C15.8044 18.8889 15.5555 18.64 15.5555 18.3333V15.5556C15.5555 13.1044 17.5489 11.1111 20 11.1111C22.4511 11.1111 24.4444 13.1044 24.4444 15.5556V18.3333C24.4444 18.64 24.1955 18.8889 23.8889 18.8889Z" fill="#FFF3F3"/>
<path d="M20 23.7037C19.183 23.7037 18.5186 23.0393 18.5186 22.2222C18.5186 21.4052 19.183 20.7407 20 20.7407C20.8171 20.7407 21.4815 21.4052 21.4815 22.2222C21.4815 23.0393 20.8171 23.7037 20 23.7037ZM20 21.8519C19.7963 21.8519 19.6297 22.0178 19.6297 22.2222C19.6297 22.4267 19.7963 22.5926 20 22.5926C20.2037 22.5926 20.3704 22.4267 20.3704 22.2222C20.3704 22.0178 20.2037 21.8519 20 21.8519Z" fill="#FFF3F3"/>
<path d="M20 25.9259C19.6933 25.9259 19.4445 25.677 19.4445 25.3704V23.3333C19.4445 23.0267 19.6933 22.7778 20 22.7778C20.3067 22.7778 20.5556 23.0267 20.5556 23.3333V25.3704C20.5556 25.677 20.3067 25.9259 20 25.9259Z" fill="#FFF3F3"/>
<defs>
<linearGradient id="paint0_linear" x1="20" y1="0" x2="20" y2="40" gradientUnits="userSpaceOnUse">
<stop stop-color="#4A5DE9"/>
<stop offset="0.96875" stop-color="#4828ED"/>
<stop offset="1" stop-color="#C4C4C4"/>
</linearGradient>
</defs>
</svg>
