<svg width="24" height="24" viewBox="0 0 24 24" fill="none" xmlns="http://www.w3.org/2000/svg">
<path d="M18 16.5H8.64188L6.72 18.1406L4.79813 16.5H0.75V17.625C0.75 19.0589 1.74047 20.227 2.96531 20.25C3.07922 20.9587 3.35484 21.5991 3.76969 22.1002C4.38328 22.8413 5.27531 23.25 6.28125 23.25H12.4688C13.4747 23.25 14.3667 22.8413 14.9803 22.0992C15.3952 21.5981 15.6708 20.9578 15.7847 20.2491C16.4353 20.2373 17.0198 19.9022 17.4253 19.3758C17.804 18.8712 18.006 18.2559 18 17.625V16.5Z" fill="#2BA33A"/>
<path d="M4.92188 15L6.71859 16.3214L8.53125 15H18V14.625C17.9995 14.1929 17.85 13.7742 17.5768 13.4395C17.3035 13.1048 16.9232 12.8745 16.5 12.7875C16.4616 11.3958 15.8906 10.2309 14.8355 9.4125C13.8595 8.65125 12.5555 8.25 11.0625 8.25H7.6875C4.48969 8.25 2.32359 10.0673 2.25 12.7875C1.82677 12.8745 1.44649 13.1048 1.17325 13.4395C0.90001 13.7742 0.750528 14.1929 0.75 14.625V15H4.92188Z" fill="#165C1B"/>
<path d="M21.7069 4.5H18.2105L18.6286 2.82844L20.7188 2.10937L20.25 0.75L17.3438 1.6875L16.6645 4.5H9.75V6H10.6289L10.7161 6.75H11.0625C12.8906 6.75 14.5153 7.26094 15.7556 8.2275C16.4455 8.75906 17.0047 9.44128 17.3906 10.222C17.6284 10.7064 17.7977 11.2215 17.8936 11.7525C18.5921 12.1826 19.11 12.8523 19.3507 13.6365C19.5913 14.4207 19.538 15.2656 19.2009 16.0134C19.3984 16.5278 19.4998 17.074 19.5 17.625C19.5 18.6722 19.1438 19.6702 18.4969 20.4352C18.0966 20.9121 17.5838 21.2818 17.0048 21.5109C16.8075 22.0732 16.5136 22.5967 16.1362 23.0578C16.0809 23.1244 16.0242 23.1895 15.9661 23.2523H19.5C20.25 23.2523 20.5781 22.8773 20.6719 22.1742L22.3781 6.00234H23.25V4.5H21.7069Z" fill="#2BA33A"/>
</svg>
