<svg xmlns="http://www.w3.org/2000/svg" fill-rule="evenodd" stroke-linejoin="round" stroke-miterlimit="2" clip-rule="evenodd" viewBox="0 0 128 129"><rect width="128" height="128" y=".925" fill="none"/><path fill="#f3b725" d="M98.027,53.209c-1.084,0 -2.121,0.44 -2.875,1.218c-1.683,1.74 -4.758,4.916 -6.441,6.655c-0.753,0.779 -1.791,1.219 -2.874,1.219c-4.237,-0 -15.48,-0 -22.914,-0c-4.622,-0 -9.191,0.976 -13.41,2.864c-11.125,4.979 -32.857,14.707 -32.857,14.707l3.473,8.122l35.783,-11.298l0,13.374l68.088,0c0,0 0,-23.317 0,-32.861c0,-1.061 -0.421,-2.078 -1.172,-2.828c-0.75,-0.751 -1.767,-1.172 -2.828,-1.172c-6.146,0 -17.655,0 -21.973,0Z"/><path fill="#fff" fill-opacity=".14" d="M16.656,79.872c0,-0 25.443,-4.78 36.568,-9.76c4.218,-1.888 8.788,-2.864 13.409,-2.864c7.434,-0 18.677,-0 22.914,-0c1.084,-0 2.121,-0.44 2.874,-1.218c1.684,-1.74 4.758,-4.916 6.442,-6.656c0.753,-0.778 1.79,-1.218 2.874,-1.218c4.319,0 15.827,0 21.973,0c0.097,0 0.194,0.004 0.29,0.011l0,-0.958c0,-1.061 -0.421,-2.078 -1.172,-2.828c-0.75,-0.751 -1.767,-1.172 -2.828,-1.172c-6.146,0 -17.655,0 -21.973,0c-1.084,0 -2.121,0.44 -2.875,1.218c-1.683,1.74 -4.758,4.916 -6.441,6.655c-0.753,0.779 -1.791,1.219 -2.874,1.219c-4.237,-0 -15.48,-0 -22.914,-0c-4.622,-0 -9.191,0.976 -13.41,2.864c-11.125,4.979 -32.857,14.707 -32.857,14.707Z"/><path fill-opacity=".14" d="M124,74.858l-68.088,0c-4.15,0 0,1.838 0,1.838l0,13.374l68.088,0l0,-15.212Z"/><rect width="68.088" height="9.419" x="55.912" y="80.651" fill="#dbdbdb"/><rect width="68.088" height="4.795" x="55.912" y="85.275" fill-opacity=".14"/><path fill-opacity=".14" d="M32.299,72.87c1.598,3.405 2.064,7.207 1.394,10.842l-13.564,4.282l-3.473,-8.122l15.643,-7.002Z"/><path fill="#f4c040" d="M2.762,67.028c-0.509,-0.464 -0.742,-1.158 -0.619,-1.835c0.124,-0.677 0.588,-1.243 1.228,-1.497c6.49,-2.521 14.151,-1.155 19.362,4.102c6.991,7.052 6.941,18.454 -0.111,25.446c-5.257,5.21 -12.929,6.51 -19.39,3.914c-0.632,-0.257 -1.086,-0.822 -1.203,-1.493c-0.116,-0.672 0.121,-1.357 0.628,-1.812c0.234,-0.233 0.475,-0.459 0.712,-0.693c7.053,-6.992 7.102,-18.394 0.111,-25.447c-0.234,-0.236 -0.474,-0.465 -0.718,-0.685Z"/><path fill-opacity=".14" d="M23.117,68.197c6.603,7.078 6.425,18.186 -0.495,25.047c-5.257,5.21 -12.929,6.51 -19.39,3.914c-0.632,-0.257 -1.086,-0.822 -1.203,-1.493c-0.116,-0.672 0.121,-1.357 0.628,-1.812c0.095,-0.095 0.191,-0.188 0.288,-0.281c5.792,1.301 12.107,-0.286 16.633,-4.772c5.597,-5.549 6.784,-13.876 3.539,-20.603Z"/><circle cx="108.522" cy="86.741" r="17.478" fill="#707070"/><path fill-opacity=".14" d="M119.136,72.858c4.172,3.195 6.864,8.227 6.864,13.883c0,9.646 -7.832,17.478 -17.478,17.478c-5.656,-0 -10.687,-2.692 -13.883,-6.864c2.944,2.255 6.624,3.595 10.615,3.595c9.646,0 17.477,-7.832 17.477,-17.478c0,-3.991 -1.34,-7.671 -3.595,-10.614Z"/><circle cx="108.522" cy="86.741" r="8.363" fill="#dbdbdb"/><path fill-opacity=".14" d="M112.642,79.463c2.533,1.438 4.243,4.16 4.243,7.278c0,4.615 -3.747,8.363 -8.363,8.363c-3.118,-0 -5.84,-1.71 -7.278,-4.243c1.216,0.691 2.623,1.085 4.12,1.085c4.616,0 8.364,-3.747 8.364,-8.363c-0,-1.498 -0.395,-2.904 -1.086,-4.12Z"/><circle cx="52.704" cy="89.99" r="14.229" fill="#707070"/><path fill-opacity=".14" d="M61.199,78.577c3.479,2.595 5.734,6.742 5.734,11.413c0,7.853 -6.376,14.229 -14.229,14.229c-4.67,-0 -8.818,-2.255 -11.412,-5.734c2.372,1.769 5.312,2.816 8.495,2.816c7.853,0 14.229,-6.375 14.229,-14.229c-0,-3.183 -1.047,-6.123 -2.817,-8.495Z"/><circle cx="52.704" cy="89.99" r="6.202" fill="#dbdbdb"/><path fill-opacity=".14" d="M55.578,84.493c1.978,1.037 3.328,3.111 3.328,5.497c0,3.423 -2.779,6.202 -6.202,6.202c-2.386,-0 -4.459,-1.351 -5.496,-3.328c0.86,0.45 1.837,0.705 2.874,0.705c3.423,0 6.202,-2.779 6.202,-6.202c0,-1.036 -0.255,-2.014 -0.706,-2.874Z"/><path fill="#262626" d="M99.719,53.27l-0,-23.7c-0,-2.761 -2.239,-5 -5,-5c-4.284,0 -11.016,0 -15.113,0c-2.524,0 -4.653,1.882 -4.962,4.388c-0.845,6.844 -2.747,22.256 -4.092,33.153c-0.068,0.548 0.322,1.047 0.87,1.115c0.548,0.067 1.047,-0.322 1.115,-0.87l4.092,-33.153c0.186,-1.503 1.463,-2.633 2.977,-2.633c4.097,0 10.829,0 15.113,0c1.656,0 3,1.344 3,3c-0,0 -0,23.7 -0,23.7c-0,0.552 0.448,1 1,1c0.552,0 1,-0.448 1,-1Z"/><path fill="#262626" d="M27.653 86.728l13.739-4.337c.526-.166.818-.729.652-1.255-.166-.526-.728-.819-1.254-.653l-13.739 4.338c-.526.166-.819.729-.653 1.255.166.526.729.819 1.255.652zm97.347-8.041l0-21.417c0-2.761-2.239-5-5-5-6.146 0-17.655 0-21.973 0-1.355 0-2.651.549-3.593 1.523 0 0-6.441 6.655-6.441 6.655-.566.584-1.343.914-2.156.914 0 0-22.914 0-22.914 0-4.763 0-9.471 1.005-13.818 2.951-5.994 2.683-15.067 6.744-22.162 9.92-.503.225-.729.817-.504 1.321.226.504.818.73 1.321.504 7.095-3.175 16.168-7.237 22.162-9.919 4.09-1.831 8.52-2.777 13.001-2.777 7.434 0 18.677 0 22.914 0 1.354 0 2.651-.55 3.593-1.523 0 0 6.441-6.655 6.441-6.655.565-.584 1.343-.914 2.156-.914 4.318 0 15.827 0 21.973 0 1.657 0 3 1.343 3 3 0 0 0 21.417 0 21.417 0 .552.448 1 1 1 .552 0 1-.448 1-1zM67.002 91.131l24.042 0c.552 0 1-.448 1-1 0-.552-.448-1-1-1l-24.042 0c-.552 0-1 .448-1 1 0 .552.448 1 1 1zm24.902-11.419l-27.904 0c-.552 0-1 .448-1 1 0 .552.448 1 1 1l27.904 0c.552 0 1-.448 1-1 0-.552-.448-1-1-1z"/><path fill="#262626" d="M2.089 67.828c.001 0 .001.001.002.002.231.209.457.425.679.648 6.603 6.661 6.556 17.429-.105 24.032-.234.232-.473.457-.705.687-.741.676-1.09 1.697-.916 2.7.176 1.011.86 1.861 1.81 2.248.002.001.003.002.005.002 6.82 2.74 14.918 1.368 20.467-4.132 7.444-7.38 7.497-19.416.117-26.86-5.499-5.548-13.584-6.991-20.434-4.33-.002.001-.004.002-.007.003-.96.381-1.657 1.23-1.842 2.246-.186 1.017.165 2.057.929 2.754zm1.347-1.479c-.254-.231-.371-.577-.309-.915.062-.337.292-.619.611-.746 6.13-2.38 13.364-1.09 18.285 3.875 6.602 6.66 6.555 17.429-.105 24.031-4.964 4.921-12.209 6.148-18.31 3.699-.312-.128-.536-.407-.593-.739-.058-.332.059-.671.31-.896.013-.011.026-.023.038-.035.233-.232.474-.458.71-.692 7.445-7.38 7.497-19.416.117-26.861-.246-.248-.498-.488-.754-.721l0 0zM108.522 68.324c-10.198 0-18.478 8.279-18.478 18.478 0 10.198 8.28 18.478 18.478 18.478 10.198 0 18.478-8.28 18.478-18.478 0-10.199-8.28-18.478-18.478-18.478zm0 2c9.095 0 16.478 7.383 16.478 16.478 0 9.094-7.383 16.478-16.478 16.478-9.094 0-16.478-7.384-16.478-16.478 0-9.095 7.384-16.478 16.478-16.478z"/><path fill="#262626" d="M108.522 77.439c-5.168 0-9.363 4.195-9.363 9.363 0 5.167 4.195 9.363 9.363 9.363 5.168 0 9.363-4.196 9.363-9.363 0-5.168-4.195-9.363-9.363-9.363zm0 2c4.064 0 7.363 3.299 7.363 7.363 0 4.064-3.299 7.363-7.363 7.363-4.064 0-7.363-3.299-7.363-7.363 0-4.064 3.299-7.363 7.363-7.363zM52.704 74.822c-8.405 0-15.229 6.824-15.229 15.229 0 8.405 6.824 15.229 15.229 15.229 8.405 0 15.229-6.824 15.229-15.229 0-8.405-6.824-15.229-15.229-15.229zm0 2c7.302 0 13.229 5.927 13.229 13.229 0 7.301-5.927 13.229-13.229 13.229-7.301 0-13.229-5.928-13.229-13.229 0-7.302 5.928-13.229 13.229-13.229z"/><path fill="#262626" d="M52.704 82.849c-3.975 0-7.202 3.227-7.202 7.202 0 3.975 3.227 7.202 7.202 7.202 3.975 0 7.202-3.227 7.202-7.202 0-3.975-3.227-7.202-7.202-7.202zm0 2c2.871 0 5.202 2.331 5.202 5.202 0 2.871-2.331 5.202-5.202 5.202-2.871 0-5.202-2.331-5.202-5.202 0-2.871 2.331-5.202 5.202-5.202zM111.804 53.27l0-16c0-.796.316-1.559.879-2.121.562-.563 1.326-.879 2.121-.879l4 0c.552 0 1-.448 1-1 0-.552-.448-1-1-1l-4 0c-1.326 0-2.598.527-3.535 1.464-.938.938-1.465 2.21-1.465 3.536l0 16c0 .552.448 1 1 1 .552 0 1-.448 1-1zM76.683 58.62l4.32 4.32c.39.391 1.024.391 1.414 0 .39-.39.39-1.024 0-1.414l-4.32-4.32c-.39-.39-1.024-.39-1.414 0-.391.39-.391 1.024 0 1.414zM91.292 59.119l1.393-11.456c.066-.548-.325-1.047-.873-1.114-.547-.066-1.046.324-1.113.872l-1.392 11.456c-.067.548.324 1.047.872 1.114.548.066 1.047-.324 1.113-.872z"/></svg>