<svg xmlns="http://www.w3.org/2000/svg" data-name="Layer 1" viewBox="0 0 32 32"><path fill="#d8d9dc" d="M27.5,22.5v9H4.5v-9a5,5,0,0,1,5-5h13A5,5,0,0,1,27.5,22.5Z"/><path fill="#ee654a" d="M24.05,24.59V31.5H7.95V24.59a1.973,1.973,0,0,1,.57-1.37l.8-.79a1.973,1.973,0,0,0,.57-1.37V17.5h4.66a2.642,2.642,0,0,0,1.5.42,2.6,2.6,0,0,0,1.37-.42h4.69v3.56a1.973,1.973,0,0,0,.57,1.37l.8.79A1.973,1.973,0,0,1,24.05,24.59Z"/><path fill="#e0e0e2" d="M16.5,19.5v12h-1v-12a.5.5,0,0,1,1,0Z"/><rect width="8.048" height="3" x="16" y="25.5" fill="#e0e0e2"/><rect width="8.048" height="3" x="7.952" y="25.5" fill="#e0e0e2"/><path fill="#fedaaa" d="M18.5,16.5V18a2.5,2.5,0,0,1-5,0V16.5Z"/><path fill="#ffdd56" d="M21.5,8v.5h-11V8a4.066,4.066,0,0,1,.03-.5A5.426,5.426,0,0,1,12.5,3.76a5.044,5.044,0,0,1,1-.65,5.428,5.428,0,0,1,5,0,4.635,4.635,0,0,1,1,.65,4.4,4.4,0,0,1,.39.35A5.44,5.44,0,0,1,21.47,7.5,4.066,4.066,0,0,1,21.5,8Z"/><rect width="13" height="2" x="9.5" y="8.5" fill="#ffdd56" rx="1" ry="1"/><path fill="#fdd331" d="M21.5,8v.5h-11V8a4.066,4.066,0,0,1,.03-.5H21.47A4.066,4.066,0,0,1,21.5,8Z"/><path fill="#ffdd56" d="M13.5,5.5V2.25a.75.75,0,0,1,.75-.75h3.5a.75.75,0,0,1,.75.75V5.5"/><path fill="#fdd331" d="M13.5 3.11V5.5h-.437L12.81 3.51A2.266 2.266 0 0 1 13.5 3.11zM19.19 3.559L18.914 5.5H18.5V3.11A2.217 2.217 0 0 1 19.19 3.559z"/><path fill="#fedaaa" d="M19.121,16.419,17.109,17.76a2,2,0,0,1-2.219,0l-2.012-1.341a4,4,0,0,1-1.7-2.544L10.5,10.5h11l-.675,3.375A4,4,0,0,1,19.121,16.419Z"/><path fill="#fcc37a" d="M18.5,16.83v1l-1.39.93a1.994,1.994,0,0,1-2.22,0l-1.39-.93v-1l1.39.93a1.994,1.994,0,0,0,2.22,0Z"/></svg>