<svg width="38" height="38" viewBox="0 0 38 38" fill="none" xmlns="http://www.w3.org/2000/svg">
<circle cx="19" cy="19" r="19" fill="url(#paint0_linear)"/>
<path d="M24.9711 21.4733C24.0514 20.5536 22.9567 19.8727 21.7622 19.4605C23.0415 18.5794 23.8819 17.1049 23.8819 15.4375C23.8819 12.7456 21.6919 10.5555 19 10.5555C16.3081 10.5555 14.1181 12.7456 14.1181 15.4375C14.1181 17.1049 14.9585 18.5794 16.2378 19.4605C15.0434 19.8727 13.9486 20.5536 13.0289 21.4733C11.4339 23.0683 10.5556 25.1888 10.5556 27.4444H11.875C11.875 23.5157 15.0713 20.3194 19 20.3194C22.9287 20.3194 26.125 23.5157 26.125 27.4444H27.4444C27.4444 25.1888 26.5661 23.0683 24.9711 21.4733ZM19 19C17.0356 19 15.4375 17.4019 15.4375 15.4375C15.4375 13.4731 17.0356 11.875 19 11.875C20.9644 11.875 22.5625 13.4731 22.5625 15.4375C22.5625 17.4019 20.9644 19 19 19Z" fill="white"/>
<defs>
<linearGradient id="paint0_linear" x1="19" y1="0" x2="19" y2="38" gradientUnits="userSpaceOnUse">
<stop stop-color="#4A5DE9"/>
<stop offset="0.96875" stop-color="#4828ED"/>
<stop offset="1" stop-color="#C4C4C4"/>
</linearGradient>
</defs>
</svg>
