<svg width="32" height="32" viewBox="0 0 32 32" fill="none" xmlns="http://www.w3.org/2000/svg">
<g clip-path="url(#clip0_1467_9928)">
<path d="M21.3332 4C22.3535 3.99994 23.3352 4.38977 24.0775 5.08971C24.8198 5.78966 25.2666 6.74681 25.3265 7.76533L25.3332 8V21.3333H26.3332C27.1958 21.3333 27.9065 21.9893 27.9918 22.8293L27.9998 23V25.3333C27.9999 26.3536 27.6101 27.3354 26.9101 28.0777C26.2102 28.82 25.253 29.2668 24.2345 29.3267L23.9998 29.3333H10.6665C9.64622 29.3334 8.66448 28.9436 7.92216 28.2436C7.17983 27.5437 6.73303 26.5865 6.67317 25.568L6.6665 25.3333V12H4.33317C3.92056 12.0002 3.52255 11.8473 3.21615 11.571C2.90975 11.2946 2.71676 10.9144 2.6745 10.504L2.6665 10.3333V8C2.66645 6.97972 3.05627 5.99798 3.75622 5.25565C4.45616 4.51332 5.41331 4.06652 6.43184 4.00667L6.6665 4H21.3332ZM25.3332 24H13.3332V25.3333C13.3332 25.8 13.2532 26.2493 13.1065 26.6667H23.9998C24.3535 26.6667 24.6926 26.5262 24.9426 26.2761C25.1927 26.0261 25.3332 25.687 25.3332 25.3333V24ZM15.9998 16H13.3332C12.9933 16.0004 12.6665 16.1305 12.4193 16.3638C12.1722 16.5971 12.0235 16.9159 12.0036 17.2552C11.9837 17.5944 12.0941 17.9285 12.3122 18.1891C12.5303 18.4497 12.8397 18.6172 13.1772 18.6573L13.3332 18.6667H15.9998C16.3397 18.6663 16.6665 18.5362 16.9137 18.3029C17.1608 18.0696 17.3095 17.7507 17.3294 17.4115C17.3493 17.0722 17.2389 16.7382 17.0208 16.4776C16.8027 16.217 16.4933 16.0495 16.1558 16.0093L15.9998 16ZM18.6665 10.6667H13.3332C12.9795 10.6667 12.6404 10.8071 12.3904 11.0572C12.1403 11.3072 11.9998 11.6464 11.9998 12C11.9998 12.3536 12.1403 12.6928 12.3904 12.9428C12.6404 13.1929 12.9795 13.3333 13.3332 13.3333H18.6665C19.0201 13.3333 19.3593 13.1929 19.6093 12.9428C19.8594 12.6928 19.9998 12.3536 19.9998 12C19.9998 11.6464 19.8594 11.3072 19.6093 11.0572C19.3593 10.8071 19.0201 10.6667 18.6665 10.6667ZM6.6665 6.66667C6.31288 6.66667 5.97374 6.80714 5.7237 7.05719C5.47365 7.30724 5.33317 7.64638 5.33317 8V9.33333H6.6665V6.66667Z" fill="white"/>
</g>
<defs>
<clipPath id="clip0_1467_9928">
<rect width="32" height="32" fill="white"/>
</clipPath>
</defs>
</svg>
