<svg width="32" height="32" viewBox="0 0 32 32" fill="none" xmlns="http://www.w3.org/2000/svg">
<path d="M9.3335 6.66667V20C9.3335 21.48 8.14683 22.6667 6.66683 22.6667H5.3335C4.60016 22.6667 4.00016 22.0667 4.00016 21.3333V17.3333H1.3335V21.3333C1.3335 23.5467 3.12016 25.3333 5.3335 25.3333H6.66683C9.6135 25.3333 12.0002 22.9467 12.0002 20V6.66667M30.6668 17.84L29.0268 16.2C28.5426 15.7136 27.9671 15.3278 27.3332 15.0646C26.6994 14.8015 26.0198 14.6662 25.3335 14.6667H22.6668V17.3333H25.3335C26.0002 17.3333 26.6668 17.6 27.1335 18.08L27.6002 18.5467L26.0002 19.4667C25.3868 19.8133 24.7068 20 24.0002 20H22.6668C21.9202 20 21.3335 19.4133 21.3335 18.6667V8.00001H18.6668V13.08L17.8402 12.16C16.9335 11.16 15.4668 10.6667 14.1202 10.6667H13.3335V13.3333H14.1202C14.9735 13.3333 15.7868 13.6667 16.3868 14.28L18.6668 16.5467V18.6667C18.6668 20.16 17.4935 21.3333 16.0002 21.3333H13.3335V24H16.0002C17.8268 24 19.3335 23.0667 20.2268 21.6533C20.543 21.9796 20.9226 22.2378 21.3421 22.4121C21.7617 22.5863 22.2125 22.673 22.6668 22.6667H24.0002C25.1735 22.6667 26.3202 22.36 27.3335 21.7733L30.6668 19.8533V17.84Z" fill="white"/>
</svg>
