<svg xmlns="http://www.w3.org/2000/svg" xmlns:xlink="http://www.w3.org/1999/xlink" width="32" height="32" viewBox="0 0 32 32"><defs><linearGradient id="a"><stop offset="0" stop-color="#24f3d2"/><stop offset=".394" stop-color="#0674f0"/><stop offset=".507" stop-color="#6961b5"/><stop offset=".813" stop-color="#f34660"/><stop offset="1" stop-color="#ee078d"/></linearGradient><linearGradient id="b" x1="868.253" x2="937.656" y1="521.354" y2="588.736" gradientTransform="translate(-893.646 499.682) scale(1.02524)" gradientUnits="userSpaceOnUse" xlink:href="#a"/></defs><g fill="#fff" transform="translate(9 -1028.362)"><rect width="32" height="32" x="-9" y="1028.362" fill="url(#b)" rx="6.763" ry="6.763"/><path style="text-indent:0;text-align:start;line-height:normal;text-transform:none;block-progression:tb" d="M 19.75 10 C 18.65135 10 17.75 10.9013 17.75 12 C 17.75 12.1788 17.767793 12.36595 17.8125 12.53125 L 14.625 14.375 C 14.165803 13.8501 13.497833 13.5 12.75 13.5 C 11.37521 13.5 10.25 14.6252 10.25 16 C 10.25 17.3748 11.37521 18.5 12.75 18.5 C 13.498469 18.5 14.165778 18.1507 14.625 17.625 L 17.8125 19.46875 C 17.767062 19.63535 17.75 19.8197 17.75 20 C 17.75 21.0986 18.65135 22 19.75 22 C 20.84865 22 21.75 21.0986 21.75 20 C 21.75 18.9013 20.84865 18 19.75 18 C 19.189236 18 18.676844 18.249 18.3125 18.625 L 15.125 16.78125 C 15.204139 16.53855 15.25 16.2682 15.25 16 C 15.25 15.7315 15.204301 15.4929 15.125 15.25 L 18.3125 13.375 C 18.676908 13.7516 19.188745 14 19.75 14 C 20.84865 14 21.75 13.0986 21.75 12 C 21.75 10.9013 20.84865 10 19.75 10 z M 19.75 11 C 20.30821 11 20.75 11.4418 20.75 12 C 20.75 12.5582 20.30821 13 19.75 13 C 19.19179 13 18.75 12.5582 18.75 12 C 18.75 11.4418 19.19179 11 19.75 11 z M 12.75 14.5 C 13.58435 14.5 14.25 15.1656 14.25 16 C 14.25 16.8343 13.58435 17.5 12.75 17.5 C 11.91565 17.5 11.25 16.8343 11.25 16 C 11.25 15.1656 11.91565 14.5 12.75 14.5 z M 19.75 19 C 20.30821 19 20.75 19.4418 20.75 20 C 20.75 20.5582 20.30821 21 19.75 21 C 19.19179 21 18.75 20.5582 18.75 20 C 18.75 19.4418 19.19179 19 19.75 19 z " color="#000" font-family="sans-serif" font-weight="400" overflow="visible" transform="translate(-9 1028.362)"/></g></svg>