<?xml version="1.0" encoding="UTF-8" standalone="no"?> <svg id="Layer_1" data-name="Layer 1" xmlns="http://www.w3.org/2000/svg" viewBox="0 0 128 128"><defs><style>.cls-1{fill:#1d75b8;}.cls-2{fill:#2d3e50;}</style></defs><title>n</title><path class="cls-1" d="M93.0364,39.80642H57.88368a2.2239,2.2239,0,1,0,0,4.4478H93.0364a2.2239,2.2239,0,0,0,0-4.4478Z"/><path class="cls-1" d="M57.88368,58.8137h18.7452a2.2239,2.2239,0,0,0,0-4.4478H57.88368a2.2239,2.2239,0,1,0,0,4.4478Z"/><path class="cls-1" d="M44.46754,44.12136l-6.28386,6.28413-2.14743-2.14743a1.9297,1.9297,0,0,0-2.72905,2.729l3.51209,3.51165a1.92945,1.92945,0,0,0,2.72879,0l7.64843-7.64843a1.92964,1.92964,0,1,0-2.729-2.72887Z"/><path class="cls-1" d="M93.0364,80.39381H57.88368a2.22394,2.22394,0,1,0,0,4.44789H93.0364a2.22394,2.22394,0,0,0,0-4.44789Z"/><path class="cls-1" d="M76.62887,94.95337H57.88368a2.2239,2.2239,0,1,0,0,4.4478h18.7452a2.2239,2.2239,0,1,0,0-4.4478Z"/><path class="cls-1" d="M44.46754,84.70884l-6.28386,6.284-2.14743-2.14743A1.92973,1.92973,0,0,0,33.3072,91.5745l3.51209,3.51165a1.92966,1.92966,0,0,0,2.72879,0l7.64843-7.64852a1.92961,1.92961,0,1,0-2.729-2.72879Z"/><path class="cls-2" d="M100.835,12.80347H85.80422L84.27642,4.204a3.30135,3.30135,0,0,0-3.2303-2.61911H46.96844A3.32941,3.32941,0,0,0,43.72358,4.204l-1.5278,8.5995H27.165A13.06874,13.06874,0,0,0,14.113,25.85539v87.50784a13.07812,13.07812,0,0,0,13.052,13.05192h73.67a13.06874,13.06874,0,0,0,13.052-13.05192V25.85539A13.05939,13.05939,0,0,0,100.835,12.80347ZM63.9345,4.1894a3.012,3.012,0,1,1-3.012,3.012A3.00873,3.00873,0,0,1,63.9345,4.1894Zm41.70231,109.17383a4.8065,4.8065,0,0,1-4.8018,4.80171H27.165a4.8065,4.8065,0,0,1-4.8018-4.80171V25.85539a4.819,4.819,0,0,1,4.8018-4.81627H40.72614l-.01448.01456H87.28833v-.01456H100.835a4.819,4.819,0,0,1,4.8018,4.81627Z"/></svg>