<svg width="32" height="32" viewBox="0 0 32 32" fill="none" xmlns="http://www.w3.org/2000/svg">
<path d="M26.6667 2.66667H10.6667C9.95942 2.66667 9.28115 2.94762 8.78105 3.44772C8.28095 3.94782 8 4.62609 8 5.33334V21.3333C8 22.0406 8.28095 22.7189 8.78105 23.219C9.28115 23.7191 9.95942 24 10.6667 24H26.6667C27.3739 24 28.0522 23.7191 28.5523 23.219C29.0524 22.7189 29.3333 22.0406 29.3333 21.3333V5.33334C29.3333 4.62609 29.0524 3.94782 28.5523 3.44772C28.0522 2.94762 27.3739 2.66667 26.6667 2.66667ZM18.6667 6.00001C19.5507 6.00001 20.3986 6.35119 21.0237 6.97632C21.6488 7.60144 22 8.44928 22 9.33334C22 10.2174 21.6488 11.0652 21.0237 11.6904C20.3986 12.3155 19.5507 12.6667 18.6667 12.6667C17.7826 12.6667 16.9348 12.3155 16.3096 11.6904C15.6845 11.0652 15.3333 10.2174 15.3333 9.33334C15.3333 8.44928 15.6845 7.60144 16.3096 6.97632C16.9348 6.35119 17.7826 6.00001 18.6667 6.00001ZM25.3333 20H12V19.6667C12 17.2013 15.0053 14.6667 18.6667 14.6667C22.328 14.6667 25.3333 17.2013 25.3333 19.6667V20Z" fill="white"/>
<path d="M5.33317 10.6667H2.6665V26.6667C2.6665 28.1373 3.8625 29.3333 5.33317 29.3333H21.3332V26.6667H5.33317V10.6667Z" fill="white"/>
</svg>
