<svg width="24" height="26" viewBox="0 0 24 26" fill="none" xmlns="http://www.w3.org/2000/svg">
<path fill-rule="evenodd" clip-rule="evenodd" d="M2.3998 3.40016C2.3998 1.63285 3.83249 0.200165 5.5998 0.200165H18.3998C20.1671 0.200165 21.5998 1.63285 21.5998 3.40016V22.6002C22.4835 22.6002 23.1998 23.3165 23.1998 24.2002C23.1998 25.0838 22.4835 25.8002 21.5998 25.8002H16.5324C15.7964 25.8002 15.1998 25.2035 15.1998 24.4676V21.0002C15.1998 20.1165 14.4835 19.4002 13.5998 19.4002H10.3998C9.51615 19.4002 8.7998 20.1165 8.7998 21.0002V24.4676C8.7998 25.2035 8.20318 25.8002 7.4672 25.8002H2.3998C1.51615 25.8002 0.799805 25.0838 0.799805 24.2002C0.799805 23.3165 1.51615 22.6002 2.3998 22.6002V3.40016ZM7.1998 5.00016H10.3998V8.20016H7.1998V5.00016ZM10.3998 11.4002H7.1998V14.6002H10.3998V11.4002ZM13.5998 5.00016H16.7998V8.20016H13.5998V5.00016ZM16.7998 11.4002H13.5998V14.6002H16.7998V11.4002Z" fill="white"/>
</svg>
