<svg clip-rule="evenodd" fill-rule="evenodd" height="6.82666in" image-rendering="optimizeQuality" shape-rendering="geometricPrecision" text-rendering="geometricPrecision" viewBox="0 0 6.82666 6.82666" width="6.82666in" xmlns="http://www.w3.org/2000/svg" xmlns:xlink="http://www.w3.org/1999/xlink"><linearGradient id="a" gradientUnits="userSpaceOnUse" x1="1.68784" x2="5.13882" y1=".424697" y2="6.40196"><stop offset="0" stop-color="#444ff5"/><stop offset=".490196" stop-color="#21bfdb"/><stop offset="1" stop-color="#1dabb6"/></linearGradient><path d="m6.36936 1.70667c.942567 1.63257.383209 3.72013-1.24937 4.6627-1.63257.942567-3.72013.383209-4.6627-1.24937-.942567-1.63257-.383209-3.72013 1.24937-4.6627 1.63257-.942567 3.72013-.383209 4.6627 1.24937z" fill="url(#a)"/><g fill="#fefefe" fill-rule="nonzero"><path d="m1.15291 1.50857h4.52083c.0402677 0 .0729134.0326457.0729134.0729134v3.18583c0 .0402677-.0326457.0729173-.0729134.0729173h-4.52083c-.0402677 0-.0729134-.0326496-.0729134-.0729173v-3.18583c0-.0402677.0326457-.0729134.0729134-.0729134zm4.44792.145831h-4.375v3.03999h4.375z"/><path d="m2.98856 4.69439h.849551c.0402677 0 .0729173.0326457.0729173.0729173v.47787c0 .0402677-.0326496.0729173-.0729173.0729173h-.849551c-.0402677 0-.0729173-.0326496-.0729173-.0729173v-.47787c0-.0402717.0326496-.0729173.0729173-.0729173zm.776634.145835h-.703717v.332035h.703717z"/><path d="m2.28491 5.17226c-.0402677 0-.0729173.0326457-.0729173.0729173 0 .0402677.0326496.0729173.0729173.0729173h2.25684c.0402677 0 .0729173-.0326496.0729173-.0729173 0-.0402717-.0326496-.0729173-.0729173-.0729173z"/><path d="m4.31556 2.0628c.306953 0 .584862.124425.78602.325591.201165.201157.325591.479067.325591.78602s-.124429.584858-.325591.786024c-.201157.201157-.479067.325587-.78602.325587s-.584862-.124429-.78602-.325587c-.201161-.201165-.325591-.479071-.325591-.786024s.124425-.584862.325591-.78602c.201157-.201165.479067-.325591.78602-.325591zm.682913.428701c-.174764-.174768-.416217-.282866-.682913-.282866-.266693 0-.50815.108098-.682913.282866-.174764.17476-.282862.416213-.282862.682909 0 .266697.108102.508146.282862.682913.174764.174764.41622.282866.682913.282866s.50815-.108102.682913-.282866c.17476-.174768.282862-.416217.282862-.682913 0-.266697-.108098-.50815-.282862-.682909z"/><path d="m4.31556 2.0628c.183366 0 .345567.130961.459567.342681.106669.198094.172646.470067.172646.768929 0 .298866-.0659764.570831-.172646.768933-.114004.211717-.276201.342677-.459567.342677s-.345563-.130957-.459567-.342677c-.106669-.198098-.172646-.470067-.172646-.768933s.0659764-.570835.172646-.768929c.114004-.211724.276201-.342681.459567-.342681zm.331398.411606c-.0884134-.164201-.205874-.265772-.331398-.265772s-.24298.101567-.331394.265772c-.0957559.177831-.154984.425217-.154984.700004 0 .274783.0592283.522177.154984.700004.0884134.164205.20587.265776.331394.265776.125528 0 .24298-.101571.331398-.265776.095752-.177831.154984-.42522.154984-.700004 0-.274783-.0592283-.522173-.154984-.700004z"/><path d="m3.40843 2.62542c-.0402677 0-.0729173.0326457-.0729173.0729173 0 .0402677.0326496.0729173.0729173.0729173h1.81428c.0402677 0 .0729173-.0326496.0729173-.0729173 0-.0402717-.0326496-.0729173-.0729173-.0729173z"/><path d="m3.3202 3.10149c-.0402677 0-.0729173.0326496-.0729173.0729173 0 .0402717.0326496.0729173.0729173.0729173h2.03406c.0402677 0 .0729173-.0326457.0729173-.0729173 0-.0402677-.0326496-.0729173-.0729173-.0729173z"/><path d="m3.40843 3.57756c-.0402677 0-.0729173.0326457-.0729173.0729173 0 .0402677.0326496.0729134.0729173.0729134h1.81428c.0402677 0 .0729173-.0326457.0729173-.0729134 0-.0402717-.0326496-.0729173-.0729173-.0729173z"/><path d="m1.47244 2.57969c-.0402677 0-.0729173.0326496-.0729173.0729173 0 .0402717.0326496.0729173.0729173.0729173h1.54361c.0402677 0 .0729134-.0326457.0729134-.0729173 0-.0402677-.0326457-.0729173-.0729134-.0729173z"/><path d="m1.47244 3.10147c-.0402677 0-.0729173.0326457-.0729173.0729173 0 .0402677.0326496.0729173.0729173.0729173h1.54361c.0402677 0 .0729134-.0326496.0729134-.0729173 0-.0402717-.0326457-.0729173-.0729134-.0729173z"/><path d="m1.47244 3.62326c-.0402677 0-.0729173.0326496-.0729173.0729173s.0326496.0729173.0729173.0729173h1.54361c.0402677 0 .0729134-.0326496.0729134-.0729173s-.0326457-.0729173-.0729134-.0729173z"/></g></svg>